<svg width="372" height="254" viewBox="0 0 372 254" fill="none" xmlns="http://www.w3.org/2000/svg">
<g clip-path="url(#clip0)">
<path d="M342.711 61.7438C300.489 7.73692 211.299 -14.1706 123.583 9.42432C77.2103 21.8983 32.4984 46.8916 10.3403 95.2869C-29.2698 181.799 53.8965 209.428 108.278 218.234C134.574 222.492 159.341 229.645 181.972 239.383C222.689 256.903 294.76 272.428 349.107 199.449C388.497 146.553 370.834 97.7177 342.711 61.7438Z" fill="#DDE8FA"/>
<path d="M97.9259 72.4288C97.8078 71.5705 97.569 70.7299 97.2153 69.9281C97.1702 69.7765 97.0913 69.6352 96.9835 69.5131C96.8757 69.3911 96.7415 69.2911 96.5893 69.2193C96.3859 69.1707 96.1727 69.1685 95.9681 69.213L92.7789 69.6615C92.512 69.6727 92.2564 69.764 92.0512 69.9214C91.6359 70.323 92.0449 70.9696 92.0322 71.5236C92.0179 72.1465 91.4157 72.6522 90.7628 72.8195C90.0962 72.9433 89.4087 72.9354 88.7457 72.7965L84.2863 72.1595C85.5996 71.774 86.7687 71.0569 87.6599 70.09C88.2468 69.4509 88.559 68.2578 87.7108 67.9552C87.4588 67.8916 87.1961 67.8722 86.9363 67.898C84.9158 67.9125 83.3259 66.3618 81.4344 65.7087C80.2238 65.3177 78.9097 65.2886 77.68 65.6256C76.4504 65.9626 75.3681 66.6483 74.588 67.5848L76.9636 67.6901C77.1871 67.6787 77.4087 67.7331 77.5964 67.8452C78.117 68.2384 77.4697 68.9937 77.5431 69.6094C77.6384 70.4093 78.7939 70.5801 79.6649 70.661C80.5359 70.7419 81.6409 71.3924 81.2219 72.099C76.8441 73.4851 72.3892 69.3895 67.7916 69.8936C66.6279 70.0212 65.5292 70.4414 64.3931 70.7056C57.453 72.3197 50.2783 68.0132 43.1887 68.9252C41.6126 69.1722 40.0635 69.5478 38.5599 70.0474C37.595 70.3386 36.5885 70.6534 35.8874 71.3288C35.1863 72.0042 34.9195 73.1593 35.5837 73.8655C33.753 74.0041 31.9102 73.843 30.1407 73.3899C30.6192 73.6344 31.0173 73.9928 31.2931 74.4275C31.569 74.8621 31.7124 75.3571 31.7084 75.8603C28.8501 76.2887 26.0674 77.0687 23.4353 78.1791C23.9266 78.93 24.5004 79.6327 25.1477 80.2759L21.5291 82.4129C22.7516 82.696 23.3837 84.2284 22.6727 85.1854C23.9404 84.6671 24.726 83.3261 26.0815 83.0542C26.9695 82.8761 27.8731 83.21 28.7156 83.5237C29.558 83.8374 30.484 84.1416 31.3561 83.9061C32.2282 83.6707 32.8715 82.6312 32.3173 81.9689C36.0449 80.9692 39.8973 80.4159 43.7791 80.3229C44.0785 80.2883 44.3822 80.3413 44.6471 80.4743C45.1524 80.7966 45.0195 81.4926 44.9923 82.0574C44.9651 82.6221 45.4439 83.3644 45.993 83.1098C45.347 83.6248 45.8993 84.5942 46.5191 85.1358C47.1389 85.6773 47.886 86.4245 47.5065 87.1289C47.4075 87.3127 47.2395 87.4598 47.1442 87.6454C46.8629 88.1929 47.3095 88.8313 47.8363 89.195C48.363 89.5586 49.0083 89.8128 49.3742 90.3163C49.7401 90.8199 49.5739 91.7013 48.9196 91.7716L47.0598 89.601C46.4244 90.2067 45.9888 90.9655 45.8035 91.7895C47.7757 93.2714 48.0723 96.2878 46.4212 98.0709C45.5775 98.982 44.3776 99.5357 43.3304 100.246C42.2832 100.957 41.3142 101.969 41.3168 103.166C41.3214 105.233 41.1376 107.154 41.9803 109.07C43.5343 112.604 45.3284 116.045 47.3521 119.372C47.8835 120.246 48.5703 121.203 49.6469 121.354C48.2863 118.309 47.0616 115.217 45.9726 112.078C46.6819 112.08 47.5015 112.132 47.9173 112.66C48.2616 113.098 48.1876 113.692 48.2946 114.223C48.4307 114.738 48.6576 115.228 48.9663 115.675L55.4633 126.313C56.0019 127.195 56.6197 128.142 57.6491 128.499C58.3072 128.727 59.0686 128.684 59.6743 129.013C60.1491 129.27 60.4689 129.728 60.953 129.971C62.3216 130.657 64.2248 129.341 65.5038 130.16C65.8695 130.394 66.1022 130.767 66.4392 131.035C67.6204 131.975 69.5582 131.346 70.9219 132.048C71.8008 132.5 72.2562 133.404 72.725 134.223C73.8992 136.276 75.7991 138.286 78.3156 138.45C79.106 138.501 79.9135 138.363 80.6861 138.525C81.4588 138.687 82.2194 139.306 82.0954 140.026C81.8828 141.259 82.5457 142.61 82.3677 143.848C82.0434 146.103 78.5636 147.094 78.2647 149.352C78.1992 149.846 78.3016 150.357 78.1736 150.841C78.0166 151.434 77.532 151.917 77.3598 152.506C77.0335 153.623 77.9043 154.735 78.8609 155.487C79.8175 156.239 80.9585 156.887 81.4815 157.939C82.0343 159.051 81.7628 160.348 81.9425 161.559C82.335 164.204 84.8201 166.165 87.3776 167.429C88.1569 167.814 88.9935 168.187 89.4979 168.855C90.1562 169.727 90.0906 170.877 90.3104 171.919C90.8487 174.471 93.186 176.574 93.2524 179.173C93.2995 181.02 92.1824 182.696 91.5152 184.439C90.8896 186.109 90.6632 187.883 90.8514 189.641C91.0397 191.399 91.6382 193.099 92.6061 194.624C93.1053 195.399 93.7023 196.13 94.0555 196.97C94.6856 198.468 94.4811 200.172 95.0621 201.688C95.8303 203.692 97.941 205.347 97.739 207.463C98.6973 209.292 100.813 210.191 102.941 210.736L106.754 211.711C107.485 211.898 108.248 212.086 108.991 211.951C109.735 211.816 110.444 211.248 110.425 210.552C108.555 210.164 106.625 209.752 105.083 208.704C103.542 207.657 102.486 205.792 103.071 204.113C103.342 203.335 103.919 202.437 103.37 201.794C103.056 201.426 102.482 201.329 102.128 200.994C101.575 200.47 101.765 199.59 102.162 198.958C102.56 198.326 103.134 197.761 103.294 197.047C103.375 196.647 103.321 196.234 103.139 195.863C102.957 195.492 102.657 195.182 102.277 194.972C102.984 194.727 103.627 194.348 104.165 193.859C104.661 193.338 104.89 192.535 104.5 191.942C105.659 192.077 107.028 192.144 107.79 191.328C108.397 190.677 108.356 189.704 108.115 188.875C107.875 188.046 107.469 187.24 107.457 186.383C110.132 186.499 112.812 186.416 115.472 186.133C115.088 184.942 114.214 183.936 113.035 183.327C114.24 183.14 115.338 181.814 115.718 180.747C116.099 179.679 116.002 178.517 115.767 177.415C115.676 177.131 115.664 176.831 115.731 176.542C115.866 176.144 116.291 175.902 116.684 175.694L122.664 172.537C123.021 172.373 123.344 172.153 123.62 171.888C124.247 171.212 124.154 170.191 123.833 169.353C123.512 168.514 122.998 167.726 122.875 166.845C122.505 164.21 125.574 162.319 126.61 159.839C127.016 158.865 127.099 157.807 127.178 156.767C127.262 155.649 127.269 154.352 126.335 153.632C125.441 152.942 124.043 153.096 123.107 152.454C122.249 151.865 121.953 150.722 121.015 150.247C120.164 149.815 119.096 150.089 118.149 149.886C116.482 149.529 115.432 147.762 113.73 147.599C112.769 147.507 111.682 147.938 110.894 147.424C110.2 146.971 110.172 146.06 110.04 145.287C109.809 144.086 109.183 142.978 108.246 142.114C107.309 141.25 106.106 140.671 104.8 140.454C103.809 140.308 102.731 140.364 101.888 139.863C101.035 139.357 100.644 138.408 99.9736 137.706C98.8933 136.575 97.1919 136.174 95.598 135.829L89.1149 134.428C87.964 134.179 86.4806 134.048 85.863 134.974C85.6802 135.327 85.5507 135.701 85.4783 136.086C85.2469 136.783 84.7812 137.394 84.1481 137.832C83.515 138.27 82.7471 138.513 81.9549 138.524C81.4115 137.672 80.5313 137.046 79.4978 136.777C78.8404 136.608 78.1367 136.589 77.5097 136.342C77.1683 136.188 76.8644 135.973 76.6168 135.708C76.3691 135.443 76.1829 135.134 76.0694 134.801C75.956 134.468 75.9178 134.117 75.9571 133.769C75.9964 133.422 76.1124 133.085 76.298 132.781C76.6718 132.169 76.8162 131.461 76.7088 130.767C76.6015 130.072 76.2484 129.429 75.704 128.937C74.6015 128.027 73.0067 127.808 71.5283 127.899C71.1412 127.122 71.7885 126.246 72.4862 125.681C73.1838 125.117 74.031 124.562 74.1829 123.719C74.4218 122.394 72.5817 121.387 71.1846 121.782C69.7874 122.177 68.8957 123.425 68.3062 124.655C67.968 125.36 67.6804 126.103 67.1469 126.698C66.6134 127.293 65.7543 127.719 64.9417 127.528C63.7912 127.258 63.3469 126.001 63.0923 124.935C62.7507 123.505 62.4071 122.054 62.4787 120.591C62.5502 119.129 63.0868 117.626 64.2603 116.636C66.1728 115.022 69.1065 115.18 71.6874 115.438C71.0777 114.806 71.2284 113.742 71.8808 113.147C72.2252 112.866 72.6391 112.666 73.0865 112.565C73.5339 112.464 74.0013 112.465 74.4483 112.568C75.226 112.716 75.9266 113.102 76.4374 113.661C77.1708 114.483 77.3794 115.593 77.9337 116.526C78.4881 117.459 79.7346 118.254 80.7549 117.754C81.6362 117.322 81.7761 116.198 81.5568 115.302C81.3374 114.407 80.8716 113.535 80.951 112.62C81.1026 110.874 83.0722 109.822 84.8103 109.103C86.5483 108.384 88.5384 107.416 88.8138 105.683C88.8232 105.343 88.8929 105.007 89.02 104.689C89.2128 104.407 89.4807 104.175 89.7982 104.016C94.8707 100.934 100.028 97.8154 105.825 96.1316C106.127 96.044 106.162 96.1414 106.47 96.0727C106.9 95.8442 106.615 95.2119 106.202 94.9572C105.79 94.7025 105.239 94.5072 105.134 94.0606C105.057 93.7324 105.267 93.4101 105.322 93.0781C105.456 92.2623 104.395 91.5091 103.57 91.8353C103.104 91.2683 104.026 90.6096 104.771 90.421C107.009 89.855 109.305 89.5101 111.622 89.3922C111.89 89.3531 112.164 89.3959 112.402 89.5141C112.791 89.7619 112.742 90.3302 112.466 90.684C112.19 91.0377 111.761 91.2597 111.417 91.559C111.042 91.8953 110.774 92.3199 110.643 92.7865C110.512 93.2532 110.523 93.7439 110.675 94.2052C111.884 94.7708 113.2 95.353 114.539 95.1538C115.879 94.9545 117.068 93.5708 116.438 92.4657C115.852 91.4366 114.09 91.2045 113.788 90.0766C113.433 88.7561 115.467 87.5816 115.008 86.2882C114.808 85.7217 114.194 85.3883 113.722 84.9793C113.166 84.4778 112.787 83.8333 112.636 83.1304C112.485 82.4275 112.569 81.6991 112.877 81.0408C112.109 81.165 111.32 81.1181 110.576 80.9041C109.832 80.6901 109.155 80.3153 108.601 79.811C107.579 78.8623 106.763 77.3658 105.311 77.4083C103.978 77.4472 102.83 78.8763 101.584 78.4403C101.278 78.3331 100.955 78.1147 100.658 78.2427C100.56 78.3008 100.478 78.3784 100.419 78.4698C100.359 78.5612 100.322 78.6639 100.312 78.7701C99.9952 80.1618 100.54 81.7473 99.7148 82.9499C98.8169 84.2585 96.7401 84.4399 95.6516 85.6199C95.0607 86.2605 94.8317 87.1236 94.2886 87.7989C93.7455 88.4743 92.5927 88.9036 91.941 88.3151C92.2613 87.7098 92.3488 87.0224 92.1891 86.3655C92.0294 85.7085 91.632 85.1207 91.0619 84.6983C90.4568 84.3354 89.8044 84.0437 89.1203 83.8301C88.3558 83.5327 87.6285 83.1601 86.9511 82.7189C86.6118 82.5307 86.3361 82.2596 86.1548 81.9357C86.0114 81.5301 86.0308 81.0907 86.2093 80.6971C86.5398 79.8261 87.1229 79.0546 87.8955 78.4659C88.6682 77.8772 89.6011 77.4937 90.5936 77.3568C91.4614 77.2482 92.4714 77.2865 93.0458 76.6786C93.3497 76.357 93.5091 75.8708 93.9502 75.7402C94.2323 75.6881 94.5252 75.7212 94.7852 75.8347L98.0244 76.8828C98.3858 77.0327 98.7836 77.0932 99.1783 77.0582C99.374 77.0339 99.5525 76.9426 99.678 76.8024C99.8035 76.6622 99.8666 76.4836 99.8548 76.3024C99.7513 75.808 98.9236 75.5707 98.9989 75.0719C99.0411 74.9103 99.1356 74.7642 99.27 74.653C100.439 73.5093 101.869 72.6173 103.456 72.0409C105.044 71.4645 106.751 71.218 108.455 71.3189C108.864 71.9361 108.217 72.667 107.679 73.194C107.141 73.7209 106.709 74.6623 107.359 75.0679C107.626 75.193 107.923 75.2544 108.222 75.2465C109.019 75.3457 109.794 75.5618 110.518 75.8865C111.637 76.3343 112.735 76.8242 113.811 77.3563C113.716 76.7039 113.625 76.0166 113.894 75.4067C114.163 74.7967 114.928 74.3182 115.596 74.5558C116.239 74.7847 116.569 75.568 117.255 75.6398C118.169 75.7355 118.53 74.4935 118.148 73.7237C117.766 72.9538 117.01 72.3092 116.947 71.465C116.904 70.8955 117.14 70.1892 116.645 69.8444C116.469 69.7408 116.269 69.6764 116.061 69.6562L103.704 67.566C102.97 67.4418 101.91 67.537 101.878 68.2222C101.86 68.6046 102.231 68.983 102.067 69.3346C101.891 69.7099 101.314 69.6756 100.893 69.8084C100.241 70.0143 99.9138 70.7263 99.9765 71.3576C100.091 71.985 100.355 72.5812 100.75 73.1036C99.9467 72.7946 98.7297 72.7378 97.9259 72.4288Z" fill="#3F3D56"/>
<path d="M88.0663 62.7867C87.2871 62.5496 86.4474 62.5386 85.6612 62.755C84.8749 62.9715 84.1801 63.405 83.6709 63.9967C83.4674 64.2429 83.2965 64.5824 83.4669 64.8491C83.7111 65.2313 84.3333 65.0803 84.7921 64.9436C85.4664 64.7221 86.2003 64.7061 86.8853 64.8977C87.3161 65.0336 87.7015 65.2739 88.1341 65.4047C88.3447 65.4857 88.5754 65.5125 88.8012 65.4821C89.0271 65.4518 89.2398 65.3655 89.4164 65.2325C89.7133 64.9541 89.732 64.5213 89.7325 64.1315C89.7531 64.001 89.7417 63.868 89.6993 63.7421C89.6568 63.6162 89.5843 63.5006 89.487 63.4037C89.3138 63.3115 89.1192 63.2586 88.9193 63.2493C88.4717 63.1732 88.067 62.9558 87.775 62.6347" fill="#3F3D56"/>
<path d="M92.522 61.6463C92.3476 61.6376 92.1737 61.6702 92.017 61.7411C91.8604 61.812 91.7262 61.9188 91.6274 62.0511C91.5285 62.1835 91.4684 62.337 91.4528 62.4969C91.4372 62.6568 91.4666 62.8177 91.5382 62.9641C92.0737 63.0983 92.6332 63.1319 93.1832 63.0627C93.4575 63.0235 93.713 62.9106 93.9176 62.7382C94.1223 62.5657 94.2667 62.3415 94.3329 62.0937C93.6854 62.202 93.0173 62.0847 92.4587 61.7646" fill="#3F3D56"/>
<path d="M107.471 59.7418C106.014 60.0267 104.598 60.4688 103.253 61.059C103.887 61.283 104.426 61.6883 104.79 62.2151C105.155 62.7419 105.325 63.3624 105.277 63.9851C105.22 64.2242 105.227 64.4724 105.296 64.7086C105.451 65.0539 105.9 65.1834 106.295 65.272C107.004 65.4704 107.744 65.5573 108.485 65.529C108.855 65.5112 109.215 65.4087 109.532 65.2309C109.848 65.0531 110.111 64.8056 110.298 64.5107C110.405 64.2308 110.531 63.9572 110.675 63.6915C111.621 62.3671 114.431 63.9685 115.447 62.6885C115.805 62.2376 115.772 61.5588 116.238 61.2015C116.48 61.0458 116.759 60.9477 117.052 60.9161C119.095 60.543 121.158 60.2729 123.232 60.1069C124.216 60.0283 125.497 59.7038 125.505 58.7968C121.802 58.1284 117.963 58.6031 114.584 60.1473C113.367 60.7078 111.757 61.8868 110.584 61.1437C110.145 60.8655 110.167 60.1163 109.563 59.8035C108.945 59.4836 108.127 59.6137 107.471 59.7418Z" fill="#3F3D56"/>
<path d="M119.58 61.8233L121.318 62.1303C120.998 62.1172 120.679 62.1671 120.382 62.2765C120.084 62.3859 119.816 62.5523 119.594 62.7646C119.372 62.9769 119.202 63.2303 119.095 63.5078C118.988 63.7853 118.947 64.0806 118.974 64.3739C120.602 64.8737 122.376 64.3874 124.091 64.4538C125.806 64.5202 127.8 65.646 127.508 67.2004C127.419 67.6704 127.124 68.14 127.277 68.5956C127.385 68.9149 127.691 69.1415 127.864 69.4356C128.225 70.0484 127.937 70.8236 127.482 71.3807C127.027 71.9378 126.415 72.3823 126.016 72.9743C125.022 74.4468 125.587 76.3504 126.178 77.9954C126.35 78.617 126.666 79.197 127.104 79.6952C127.981 80.5521 129.41 80.6266 130.689 80.6437C131.62 80.6562 132.687 80.614 133.276 79.9507C134.045 79.0848 133.507 77.7338 134.014 76.7176C134.473 75.7947 135.645 75.3987 136.706 75.1179C138.65 74.6034 140.631 74.166 142.469 73.3889C144.751 72.4239 146.884 70.9201 149.393 70.7959C150.097 70.7611 150.818 70.8374 151.496 70.6602C152.174 70.4829 152.818 69.9442 152.766 69.2981C152.722 68.746 152.214 68.3406 151.817 67.9244C151.42 67.5082 151.108 66.8683 151.473 66.428L158.048 65.2991C157.582 64.1315 157.219 62.5938 158.29 61.8338C158.677 61.5596 159.194 61.45 159.523 61.1185C160.084 60.5535 159.802 59.5802 159.155 59.0997C158.507 58.6192 157.632 58.5076 156.803 58.4443C153.92 58.2242 151.02 58.3697 148.132 58.5152C142.485 58.7997 136.838 59.0842 131.192 59.3688C130.055 59.426 128.743 59.3385 127.7 59.695C126.817 59.9968 126.19 60.5508 125.18 60.7454C123.317 61.1047 121.266 60.8616 119.58 61.8233Z" fill="#3F3D56"/>
<path d="M150.717 74.4519C150.54 74.4261 150.359 74.4639 150.211 74.5573C150.114 74.6562 150.055 74.7827 150.047 74.9159C149.934 75.5041 150.068 76.1095 150.421 76.611C150.6 76.857 150.849 77.0542 151.139 77.1823C151.43 77.3104 151.752 77.3647 152.074 77.3394C152.856 77.2477 153.433 76.6339 154.153 76.3345C155.261 75.8733 159.971 75.1544 156.713 73.5365C155.59 72.979 154.865 73.4712 153.98 73.8383C152.973 74.3118 151.845 74.5239 150.717 74.4519V74.4519Z" fill="#3F3D56"/>
<path d="M179.251 60.91C178.871 61.0528 178.552 61.3074 178.346 61.6341C178.251 61.7999 178.229 61.9931 178.284 62.1735C178.34 62.3539 178.469 62.5078 178.644 62.6033C178.786 62.6507 178.937 62.6726 179.088 62.668L180.634 62.7105C181.292 62.7285 182.112 62.8572 182.289 63.4392C182.42 63.8714 182.127 64.4268 182.481 64.7357C182.633 64.8439 182.815 64.9094 183.007 64.9243C183.516 65.0446 184.048 65.0604 184.565 64.9706C185.691 64.6931 185.099 64.0617 185.454 63.4995C185.996 62.6393 185.902 63.16 186.858 62.667C187.564 62.3029 188.475 61.6425 187.886 60.7145C186.862 59.1008 180.762 60.2167 179.251 60.91Z" fill="#3F3D56"/>
<path d="M209.779 60.0986L208.881 60.2088C206.856 60.4573 204.819 60.708 202.868 61.267C203.713 61.5739 204.599 61.7737 205.502 61.861C205.999 61.8834 206.493 61.9479 206.977 62.0537C207.838 62.2895 208.706 62.8983 209.539 62.5865C210.055 62.3931 210.223 61.8991 210.651 61.6373C210.946 61.4566 212.066 61.164 212.191 60.9815C213.203 59.5065 210.557 60.0032 209.779 60.0986Z" fill="#3F3D56"/>
<path d="M213.723 63.8509C212.523 64.4676 211.41 65.2169 210.409 66.0821C209.987 66.4467 209.556 66.9003 209.594 67.4315C209.645 68.1375 210.463 68.547 211.172 68.8229L214.043 69.9403C214.391 69.4891 214.073 68.8661 213.713 68.4227C213.353 67.9792 212.925 67.4661 213.084 66.9325C213.265 66.3235 214.073 66.1159 214.75 66.011C215.854 65.8401 218.831 65.8538 218.474 64.2188C218.052 62.2924 214.831 63.2817 213.723 63.8509Z" fill="#3F3D56"/>
<path d="M213.146 172.872C212.872 173.6 212.846 174.456 213.319 175.092C213.85 175.804 214.912 176.07 215.83 175.889C216.745 175.665 217.56 175.184 218.161 174.511C218.711 173.948 219.163 173.311 219.502 172.621C219.975 171.547 220.309 170.425 220.496 169.278L221.388 164.976C221.587 164.014 221.579 161.066 219.657 162.027C219.131 162.289 217.915 164.361 217.365 164.948C216.373 166.007 216.242 167.035 215.719 168.317C215.065 169.924 213.75 171.263 213.146 172.872Z" fill="#3F3D56"/>
<path d="M314.692 194.889C314.063 194.664 313.452 194.396 312.865 194.09C312.276 195.578 311.963 197.146 311.939 198.73L316.244 196.49C316.891 196.154 317.625 195.685 317.611 195.002C317.617 194.917 317.598 194.833 317.556 194.757C317.515 194.682 317.451 194.619 317.373 194.573C317.278 194.538 317.174 194.527 317.072 194.541C316.433 194.59 315.851 194.878 315.249 195.079C314.647 195.28 313.943 195.386 313.39 195.088" fill="#3F3D56"/>
<path d="M337.401 196.219C336.928 196.337 336.467 196.489 336.02 196.674C335.032 197.136 334.36 198.014 333.471 198.622C332.621 199.205 331.597 199.524 330.591 199.835C330.295 200.075 330.431 200.559 330.752 200.77C331.098 200.951 331.493 201.033 331.889 201.005C332.934 201.027 334.034 201.036 334.949 200.572C335.464 200.265 335.947 199.913 336.389 199.521C337.459 198.701 338.744 198.16 340.015 197.637C340.478 197.476 340.906 197.241 341.279 196.942C342.078 196.218 342.134 195.102 340.982 194.856C340.051 194.657 338.287 195.955 337.401 196.219Z" fill="#3F3D56"/>
<path d="M347.435 190.194C347.486 189.696 347.414 189.194 347.224 188.725C347.034 188.257 346.73 187.834 346.336 187.489C346.324 188.485 346.291 189.546 345.682 190.37C345.247 190.957 344.567 191.354 344.091 191.913C343.615 192.472 343.404 193.358 343.962 193.849C344.319 194.098 344.753 194.236 345.201 194.241C346.312 194.361 347.598 194.428 348.377 193.69C348.803 193.288 349.009 192.691 349.528 192.395C349.721 192.321 349.894 192.207 350.033 192.063C350.247 191.75 349.907 191.338 349.524 191.225C349.141 191.112 348.719 191.165 348.334 191.058C347.949 190.951 347.596 190.553 347.793 190.231" fill="#3F3D56"/>
<path d="M329.601 153.671C329.019 153.801 328.415 153.834 327.82 153.767C326.831 153.6 326.061 152.915 325.262 152.353C323.364 151.025 321.057 150.283 318.672 150.236C316.502 150.199 314.312 150.739 312.181 150.362C312.32 151.074 312.983 151.608 313.69 151.925C314.397 152.242 315.177 152.402 315.888 152.713C317.025 153.216 317.928 154.079 318.429 155.144C318.658 155.635 318.802 156.169 319.149 156.597C319.857 157.474 321.2 157.666 322.385 157.594C323.93 157.501 325.544 157.093 326.981 157.622C328.081 158.026 328.868 158.911 329.786 159.599C330.704 160.287 331.997 160.797 333.051 160.301C331.956 159.975 331.003 159.336 330.331 158.477C329.659 157.618 329.303 156.584 329.316 155.526C330.35 155.614 333.328 155.58 333.168 153.965C333.032 152.596 330.489 153.523 329.601 153.671Z" fill="#3F3D56"/>
<path d="M316.075 164.807C316.258 163.881 317.263 163.064 316.95 162.168C316.733 161.548 315.952 161.242 315.244 161.227C314.537 161.212 313.842 161.406 313.134 161.424C312.673 161.401 312.212 161.407 311.752 161.442C310.348 161.654 309.482 163.007 308.158 163.488C307.353 163.781 306.449 163.725 305.612 163.927C303.712 164.387 302.51 166.037 301.181 167.368C299.035 169.508 296.239 171.007 293.156 171.67C292.076 171.9 290.914 172.047 290.055 172.692C288.918 173.546 288.638 175.01 288.385 176.34C287.686 180.012 286.618 183.617 285.194 187.108L289.706 187.638C290.564 187.738 291.453 187.837 292.279 187.603C292.88 187.395 293.449 187.116 293.972 186.774C295.981 185.628 298.23 184.881 300.573 184.584C301.755 184.435 302.993 184.408 304.102 184.811C305.211 185.215 306.162 186.131 306.255 187.223C306.735 187.086 307.246 187.072 307.733 187.181C308.221 187.29 308.668 187.519 309.025 187.843C309.732 188.504 310.194 189.353 310.348 190.27C310.467 190.837 310.586 191.517 311.158 191.755C311.626 191.949 312.162 191.74 312.673 191.703C314.408 191.575 315.847 193.434 317.552 193.114C319.381 192.771 319.829 190.253 321.613 189.749C322.638 189.459 324.075 189.812 324.566 188.936C324.998 188.163 324.135 187.272 324.224 186.408C324.334 185.343 325.7 184.891 326.753 184.437C330.384 182.871 332.107 178.379 330.347 175.066C329.305 173.103 327.254 171.558 326.875 169.401C326.584 167.742 327.295 165.808 326.144 164.502C325.559 163.837 324.568 163.471 324.219 162.678C324 162.179 324.088 161.613 323.97 161.086C323.852 160.559 323.352 160.007 322.786 160.144C321.142 160.541 320.618 165.208 319.738 166.342C318.4 168.066 315.654 166.93 316.075 164.807Z" fill="#3F3D56"/>
<path d="M285.694 155.434C285.132 155.289 284.519 155.147 283.98 155.354C283.442 155.561 283.128 156.287 283.56 156.647C286.939 156.526 290.339 156.406 293.69 156.828C297.55 157.314 301.371 158.518 305.248 158.164C303.033 157.563 300.782 157.083 298.505 156.726L294.71 156.059C293.691 155.863 292.662 155.717 291.627 155.621C289.462 155.457 287.823 155.983 285.694 155.434Z" fill="#3F3D56"/>
<path d="M289.077 144.615C288.796 144.594 288.448 144.575 288.303 144.797C288.165 145.009 288.323 145.289 288.249 145.526C288.147 145.851 287.685 145.934 287.32 145.89C286.956 145.845 286.562 145.74 286.239 145.901C286.076 146.004 285.953 146.153 285.889 146.325C285.825 146.498 285.824 146.685 285.885 146.858C286.017 147.202 286.23 147.514 286.51 147.773C286.987 148.326 287.531 148.828 288.131 149.268C289.292 150.056 290.866 150.436 291.598 151.58C291.701 151.802 291.859 151.998 292.06 152.153C292.412 152.357 292.87 152.202 293.248 152.043L294.573 151.486C294.812 151.407 295.025 151.274 295.193 151.099C295.495 150.721 295.309 150.184 295.055 149.777C294.801 149.371 294.476 148.949 294.53 148.483C294.628 147.651 295.791 147.333 296.269 146.622C296.751 145.904 296.438 144.98 296.493 144.139C296.558 143.154 297.231 141.874 296.148 141.139C295.228 140.514 294.349 141.091 293.689 141.781C292.296 143.236 291.637 144.812 289.077 144.615Z" fill="#3F3D56"/>
<path d="M297.121 129.909C297.574 130.705 298.517 131.181 299.011 131.956C299.545 132.797 299.484 133.883 300.065 134.698C300.66 135.534 301.858 135.978 302.192 136.928C302.556 137.967 301.729 139.228 302.388 140.135C302.511 140.284 302.666 140.407 302.844 140.497C303.021 140.587 303.217 140.643 303.419 140.66C303.621 140.677 303.825 140.655 304.017 140.596C304.209 140.537 304.386 140.442 304.537 140.317C304.815 140.039 304.963 139.672 304.951 139.294C304.939 138.917 304.767 138.558 304.472 138.296C304.081 137.969 303.521 137.827 303.195 137.445C303.025 137.225 302.912 136.972 302.864 136.705C302.687 135.937 302.715 135.14 302.947 134.383C303.034 134.191 303.057 133.98 303.011 133.776C302.864 133.384 302.287 133.356 301.881 133.174C300.961 132.762 300.983 131.567 301.144 130.638C301.037 131.257 298.638 130.204 298.387 129.853C297.888 129.157 298.16 127.813 298.061 127.043C296.984 127.52 296.568 128.935 297.121 129.909Z" fill="#3F3D56"/>
<path d="M272.955 142.162C272.512 141.707 271.845 141.23 271.252 141.505C270.799 141.714 270.674 142.29 270.852 142.727C271.068 143.151 271.401 143.516 271.818 143.785C273.055 144.723 274.387 145.57 275.466 146.66C277.397 148.611 278.42 151.243 280.52 153.04C280.943 153.457 281.502 153.735 282.112 153.832C282.724 153.884 283.411 153.524 283.481 152.963C283.539 152.501 283.189 152.087 282.846 151.744C282.03 150.929 281.137 150.178 280.367 149.325C280.011 148.998 279.787 148.569 279.733 148.109C279.729 147.65 280.184 147.169 280.668 147.283C280.08 147.145 279.643 146.244 278.78 146.075C278.058 145.933 277.884 146.344 277.025 146.005C275.387 145.359 274.102 143.343 272.955 142.162Z" fill="#3F3D56"/>
<path d="M311.442 97.7993C310.972 97.6709 310.51 97.5193 310.058 97.3449C308.842 97.0094 307.233 97.8311 307.395 98.9887C307.503 99.7579 308.282 100.276 308.712 100.944C309.349 101.933 309.179 103.188 308.844 104.296C308.762 104.639 308.605 104.963 308.384 105.25C308.075 105.552 307.705 105.797 307.294 105.97C305.652 106.817 304.204 107.948 303.029 109.301C302.902 109.426 302.813 109.58 302.772 109.747C302.714 110.138 303.141 110.423 303.383 110.749C303.92 111.473 303.532 112.448 303.585 113.322C303.576 113.446 303.603 113.57 303.661 113.681C303.72 113.793 303.808 113.889 303.918 113.961C304.242 114.112 304.625 113.855 304.8 113.563C305.382 112.594 304.944 111.038 306.036 110.571C306.242 110.483 306.493 110.446 306.63 110.279C306.849 110.014 306.638 109.623 306.749 109.306C306.915 108.832 307.621 108.81 308.163 108.831C309.097 108.867 310.031 108.753 310.922 108.494C311.271 108.417 311.589 108.248 311.835 108.008C312.161 107.633 312.132 107.101 312.067 106.625C311.74 104.252 310.923 101.959 309.658 99.8682C310.617 99.9808 311.66 100.078 312.488 99.6189C312.951 99.3617 313.507 98.5924 313.277 98.0688C312.914 97.2408 312.257 97.9377 311.442 97.7993Z" fill="#3F3D56"/>
<path d="M188.502 110.85C188.617 111.416 188.73 112.012 188.528 112.557C188.326 113.102 187.692 113.557 187.093 113.39C186.628 113.26 186.359 112.83 186.029 112.503C184.192 110.68 180.049 111.736 178.915 109.481C178.452 108.561 178.767 107.459 178.451 106.487C178.252 105.926 177.855 105.441 177.324 105.109C176.793 104.778 176.156 104.617 175.515 104.654C174.931 104.732 174.361 104.888 173.826 105.118C170.239 106.438 166.474 107.304 162.633 107.691C161.903 107.732 161.182 107.853 160.483 108.051C158.906 108.576 157.828 109.92 157.062 111.291C156.295 112.663 155.729 114.147 154.701 115.366C153.62 116.646 152.106 117.543 150.694 118.513C150.15 118.835 149.697 119.271 149.372 119.786C149.066 120.364 149.083 121.036 149.107 121.678L149.396 129.48C149.433 130.483 149.479 131.523 149.968 132.421C150.578 133.542 151.783 134.276 152.619 135.267C153.473 136.285 153.917 137.543 153.878 138.827C153.86 139.344 153.804 139.955 154.242 140.279C154.508 140.438 154.819 140.52 155.136 140.516L166.617 141.379C168.636 141.531 170.874 141.781 172.193 143.195C172.815 143.863 173.315 144.823 174.268 144.894C174.677 144.925 175.075 144.771 175.484 144.741C176.515 144.666 177.422 145.386 177.994 146.178C178.859 147.387 179.252 148.83 179.108 150.271C179.014 151.175 178.709 152.054 178.643 152.961C178.393 156.41 181.574 159.406 181.635 162.863C181.672 164.896 180.622 166.795 179.598 168.598C181.25 170.898 179.898 173.962 180.555 176.651C181.179 179.203 183.494 181.2 184.07 183.761C184.334 184.933 184.35 186.376 185.474 186.98C185.968 187.201 186.515 187.302 187.063 187.272C190.369 187.308 193.637 186.625 196.6 185.277C197.991 184.642 199.432 183.695 199.675 182.286C199.871 181.149 199.244 179.878 199.882 178.888C200.634 177.721 202.561 177.813 203.668 176.916C205.463 175.46 204.063 172.684 204.79 170.588C205.444 168.704 207.695 167.702 208.811 166.011C209.25 165.284 209.565 164.499 209.745 163.684C210.256 161.735 210.574 159.748 210.696 157.747C210.725 156.531 210.823 155.318 210.988 154.111C212.191 147.241 219.579 142.641 221.978 136.042C222.207 135.411 222.314 134.572 221.704 134.215C221.343 134.057 220.932 134.017 220.543 134.104L215.251 134.717C214.593 134.793 213.896 134.864 213.293 134.613C212.689 134.362 212.256 133.66 212.577 133.127C213.476 131.631 211.627 129.739 210.805 128.206C208.593 124.076 205.959 120.148 202.938 116.477C202.744 116.288 202.623 116.046 202.593 115.788L204.095 115.834C203.588 114.162 202.751 112.332 200.983 111.72C199.987 111.375 198.884 111.495 197.822 111.548C194.778 111.701 191.515 111.278 188.502 110.85Z" fill="#3F3D56"/>
<path d="M197.824 73.1633C198.621 73.9408 199.513 74.7651 200.666 74.9006C202.701 75.14 204.165 73.2052 205.096 71.5246C205.131 71.953 205.346 72.3522 205.696 72.6372C206.045 72.9222 206.502 73.0705 206.969 73.0507C207.471 72.973 207.951 72.8006 208.378 72.5445C212.41 70.5186 216.928 69.4452 221.523 69.4207C221.479 69.1007 221.566 68.777 221.766 68.5121C221.966 68.2471 222.266 68.0598 222.607 67.9861C223.542 67.8158 224.384 68.5584 224.834 69.3298C225.285 70.1012 225.566 70.9953 226.282 71.5727C226.998 72.1501 228.385 72.125 228.668 71.2888C228.939 70.4861 228.03 69.8015 227.274 69.3283C226.518 68.855 225.721 67.9791 226.23 67.2807C230.092 66.4949 233.977 65.7063 237.928 65.5501C238.601 65.5716 239.271 65.4655 239.897 65.2383C240.5 64.9665 240.979 64.3495 240.817 63.7507C239.954 63.937 239.051 63.8831 238.223 63.5957C237.394 63.3084 236.677 62.8006 236.163 62.1373C241.646 61.7214 247.477 61.3669 252.336 63.7383C252.919 64.8889 249.948 65.8462 250.743 66.8839C250.996 67.2149 251.504 67.2537 251.945 67.2613C255.321 67.3189 258.717 67.3754 262.055 66.9068C263.275 66.7356 264.508 66.4938 265.732 66.6327C267.773 66.864 269.517 68.1152 271.525 68.5232C272.341 68.6893 273.257 68.6949 273.946 68.2581C274.635 67.8214 274.931 66.8269 274.366 66.2591C276.256 64.5566 279.393 64.9785 281.886 65.7936C284.379 66.6087 286.74 67.9231 289.379 68.1048C291.271 68.2351 293.19 67.7673 295.059 68.0646C296.234 68.2515 297.328 68.732 298.476 69.0271C300.648 69.5854 302.945 69.4676 305.2 69.4944C310.954 69.5657 316.644 70.6051 321.99 72.5613C322.686 72.7694 323.323 73.1155 323.857 73.575C324.354 74.0646 324.608 74.8255 324.274 75.4209L318.75 74.6789C319.27 75.6208 320.617 75.7813 321.71 76.1062C322.804 76.4311 323.937 77.5412 323.28 78.4078C322.095 78.061 321.022 79.1499 320.423 80.1518C319.825 81.1537 319.095 82.3536 317.854 82.4146C316.742 82.4693 315.397 81.599 314.672 82.3761C315.674 83.5372 316.531 84.7972 317.229 86.1329C317.945 87.5041 318.455 89.2318 317.487 90.4655C317.335 90.6858 317.104 90.8504 316.834 90.9311C316.043 91.115 315.53 90.2262 314.963 89.6875C314.249 89.0087 313.169 88.8164 312.201 88.498C311.234 88.1796 310.215 87.5534 310.139 86.6115C310.092 86.0255 310.429 85.4808 310.677 84.9392C311.094 84.0263 311.276 83.0375 311.209 82.0494C311.155 81.2544 310.913 80.4275 310.292 79.8721C309.671 79.3167 308.598 79.1405 307.932 79.6492C307.62 79.8865 307.371 80.2662 306.967 80.2804C306.253 80.3055 305.705 79.1615 305.131 79.552C305.198 79.9681 305.104 80.3928 304.866 80.7517C303.152 82.1218 300.519 81.5422 298.31 82.0262C297.259 82.3026 296.253 82.7064 295.319 83.2269C294.969 83.3643 294.671 83.5939 294.464 83.8866C294.188 84.3792 294.492 85.0102 294.978 85.3378C295.493 85.6284 296.073 85.8102 296.674 85.8699C299.368 86.3389 302.1 87.0648 304.227 88.6551C306.354 90.2455 307.748 92.8744 307.075 95.3173L301.763 90.6517C301.965 92.6107 302.08 94.575 302.107 96.5448C302.141 96.9294 302.084 97.3163 301.938 97.6783C301.56 98.4472 300.533 98.7059 299.634 98.8756C299.384 98.9193 299.147 99.0111 298.938 99.1451C298.729 99.2791 298.553 99.4521 298.423 99.6529C298.292 99.8537 298.209 100.078 298.179 100.31C298.149 100.542 298.172 100.778 298.248 101.001C298.568 101.959 299.365 102.705 300.094 103.449C300.824 104.193 301.542 105.038 301.637 106.036C301.733 107.033 300.914 108.158 299.827 108.088C299.003 108.036 298.392 107.358 298.04 106.671C297.689 105.984 297.48 105.219 296.952 104.635C295.354 102.868 291.764 103.625 290.332 101.741C289.967 102.122 289.714 102.582 289.597 103.078C289.48 103.573 289.502 104.088 289.663 104.574C290.329 104.19 291.241 104.547 291.741 105.104C292.241 105.66 292.478 106.374 292.871 107C293.401 107.844 294.245 108.592 294.319 109.565C294.299 109.932 294.306 110.301 294.339 110.668C294.471 111.257 295.012 111.68 295.388 112.172C296.262 113.318 296.219 114.892 295.655 116.192C295.092 117.492 294.08 118.579 293.078 119.632C291.327 121.472 289.54 123.301 287.464 124.828C286.872 125.264 286.24 125.693 285.871 126.302C285.502 126.912 285.483 127.767 286.05 128.231C285.645 128.25 284.917 128.433 284.512 128.452C284.369 126.956 284.338 125.453 284.419 123.954C282.818 123.247 281.095 125.139 281.301 126.76C281.508 128.381 282.784 129.682 283.692 131.085C284.356 132.11 284.849 133.306 284.628 134.482C284.406 135.658 283.264 136.743 281.97 136.639C279.913 136.474 279.052 133.759 277.015 133.449C276.835 133.41 276.646 133.427 276.479 133.497C276.176 133.65 276.124 134.022 276.107 134.339C276.023 135.893 275.951 137.51 276.611 138.943C277.577 141.04 280.072 142.801 279.549 145.027C276.729 143.822 275.263 140.915 274.598 138.124C273.932 135.332 273.821 132.401 272.628 129.762C271.722 130.829 269.818 129.947 268.99 128.827C268.205 127.765 267.722 126.537 266.961 125.461C266.199 124.385 265.033 123.422 263.638 123.363C262.176 123.301 260.908 124.223 259.792 125.095C258.875 125.812 257.933 126.557 257.397 127.547C256.617 128.989 256.821 130.689 256.784 132.299C256.743 134.039 256.342 135.875 255.051 137.15C253.761 138.424 251.379 138.867 249.956 137.719C249.212 137.12 248.853 136.224 248.532 135.364C246.987 131.22 245.701 126.998 244.679 122.719C244.44 123.695 243.507 124.954 242.615 124.379C242.415 124.224 242.253 124.032 242.14 123.816C240.477 121.226 237.399 119.672 234.288 118.741C231.177 117.809 227.905 117.375 224.828 116.351C223.104 115.777 221.458 115.023 219.921 114.104C219.529 114.633 219.301 115.25 219.259 115.889C219.218 116.528 219.365 117.165 219.685 117.733C220.368 118.844 221.912 119.486 223.234 119.098C223.917 118.897 224.493 118.462 225.171 118.246C225.849 118.031 226.759 118.137 227.055 118.737C227.339 119.311 226.91 120.006 227.123 120.606C227.447 121.52 228.946 121.59 229.47 122.422C229.86 123.04 229.539 123.862 228.982 124.361C228.425 124.86 227.682 125.134 227.002 125.481C224.797 126.609 223.228 128.533 221.301 130.031C219.373 131.528 216.654 132.621 214.356 131.661C214.904 129.112 211.601 127.241 210.993 124.703C210.793 123.868 210.897 122.981 210.611 122.167C210.198 120.989 209.061 120.179 208.128 119.286C206.996 118.191 206.115 116.899 205.535 115.486C204.956 114.073 204.69 112.567 204.753 111.058C204.804 110.01 205.013 108.944 204.754 107.922C204.494 106.9 203.573 105.91 202.432 105.957C199.827 106.062 196.544 106.241 195.177 104.199C194.689 103.47 194.477 102.403 195.183 101.845C195.68 101.451 196.415 101.488 197.068 101.547L202.939 102.078C204.312 102.202 205.796 102.305 206.974 101.645C208.153 100.985 208.663 99.2334 207.572 98.4571C206.775 97.8899 205.347 97.9207 205.115 97.0188C204.922 96.2677 205.826 95.4155 205.338 94.7878C204.988 94.3377 204.2 94.4626 203.723 94.8C203.246 95.1374 202.9 95.6308 202.366 95.8863C201.429 96.3344 200.31 95.9079 199.302 95.6181C198.294 95.3282 196.943 95.3036 196.454 96.164C195.907 97.1263 196.939 98.3873 196.396 99.3516C195.679 100.626 193.25 99.9007 192.242 100.997C191.086 102.256 193.029 104.132 192.639 105.74C192.141 105.966 191.588 106.07 191.034 106.042C190.479 106.013 189.942 105.853 189.475 105.576C189.016 105.289 188.65 104.893 188.416 104.43C188.182 103.967 188.089 103.454 188.147 102.946C188.244 102.223 188.654 101.485 188.379 100.801C188.157 100.249 187.553 99.9197 186.992 99.6348L181.287 96.737C180.758 97.6402 181.427 98.7599 182.265 99.4382C183.102 100.117 184.151 100.628 184.701 101.52C185.049 102.139 185.127 102.856 184.919 103.526C184.711 104.195 184.233 104.767 183.583 105.123C183.501 105.175 183.408 105.21 183.311 105.226C183.213 105.241 183.113 105.237 183.017 105.214C182.926 105.165 182.847 105.099 182.784 105.022C182.721 104.944 182.675 104.855 182.65 104.761C181.644 102.393 180.132 100.058 177.716 98.8214C175.3 97.5845 171.828 97.8388 170.244 99.9225C169.868 100.417 169.615 100.982 169.287 101.505C167.545 104.285 163.811 105.601 160.323 105.515C159.981 105.532 159.642 105.459 159.345 105.304C158.781 104.946 158.806 104.186 158.893 103.562L159.259 100.91C159.332 100.377 159.439 99.7887 159.897 99.4563C160.544 98.9877 161.476 99.2834 162.299 99.2725C162.923 99.2457 163.522 99.0433 164.016 98.6927C164.511 98.3421 164.875 97.8603 165.062 97.3127C165.228 96.7596 165.227 96.1753 165.059 95.6228C164.89 95.0702 164.561 94.5704 164.107 94.177C163.73 93.8514 163.223 93.4422 163.422 93.0032C163.502 92.8817 163.609 92.7778 163.737 92.6986C163.865 92.6194 164.011 92.567 164.163 92.5449C165.641 92.1503 167.203 92.0468 168.657 91.5812C170.111 91.1155 171.521 90.1628 171.865 88.7835C171.97 88.3609 172.019 87.8488 172.432 87.6393C172.639 87.5588 172.861 87.517 173.086 87.5163C173.874 87.4132 174.592 87.0427 175.098 86.4776C175.604 85.9125 175.861 85.1938 175.819 84.463C176.516 84.0155 177.492 84.3447 178.166 84.8207C178.84 85.2967 179.435 85.9255 180.255 86.1307C181.784 86.5131 183.261 85.2691 184.845 85.2634C185.511 85.2609 186.2 85.4774 186.827 85.2699C187.462 85.0594 187.842 84.4781 188.329 84.0486C188.817 83.6192 189.672 83.3573 190.123 83.8199L189.739 81.2095C190.511 81.3888 191.316 81.4142 192.1 81.2839C192.883 81.1537 193.628 80.8709 194.283 80.4544L189.328 78.9155C189.155 78.8759 188.996 78.7976 188.864 78.6877C188.504 78.3312 188.862 77.7755 189.155 77.3702C189.856 76.4006 189.973 74.8033 188.821 74.3206C188.034 73.9911 187.131 74.3866 186.376 74.7735L182.76 76.6271C182.645 77.259 183.486 77.6172 184.007 78.0428C184.322 78.3003 184.545 78.6394 184.647 79.0156C184.748 79.3918 184.724 79.7875 184.576 80.1506C184.429 80.5138 184.165 80.8274 183.82 81.0504C183.475 81.2734 183.065 81.3953 182.644 81.4C182.882 81.6846 183.047 82.0148 183.128 82.3662C183.208 82.7175 183.202 83.081 183.109 83.4297L180.675 83.5906C180.402 83.6411 180.119 83.5902 179.886 83.449C179.626 83.2366 179.661 82.8642 179.601 82.5491C179.455 81.7886 178.645 81.2555 177.818 81.1189C176.992 80.9822 176.146 81.1574 175.327 81.3304C174.979 81.4454 174.598 81.4373 174.256 81.3076C174.06 81.1907 173.911 81.0181 173.832 80.8161C173.473 80.0161 173.809 79.0757 174.385 78.3916C174.962 77.7074 175.751 77.2073 176.46 76.6377C178.155 75.2706 179.4 73.4951 180.055 71.5118C181.395 70.9959 182.781 70.2949 184.121 69.779C186.186 68.8179 188.502 68.4054 190.808 68.588L195.345 68.6676C196.688 68.6912 198.067 68.7214 199.309 69.1921C200.551 69.6628 201.642 70.6808 201.728 71.913C201.754 72.0525 201.741 72.1958 201.69 72.3294C201.639 72.4629 201.552 72.5824 201.437 72.6766C201.262 72.7646 201.063 72.8058 200.863 72.7955C199.611 72.8359 199.077 73.1228 197.824 73.1633Z" fill="#3F3D56"/>
<path d="M161.667 86.2319C161.844 86.0777 161.971 85.8816 162.035 85.6651C162.099 85.4486 162.097 85.2201 162.029 85.0047C161.597 84.8518 161.128 84.8125 160.674 84.8913C160.22 84.9702 159.798 85.164 159.458 85.451C159.189 85.7009 158.957 85.9823 158.769 86.288C158.173 87.182 157.645 88.2498 157.991 89.2491C158.019 89.3581 158.071 89.4608 158.143 89.5512C158.214 89.6416 158.305 89.7179 158.41 89.7756C158.565 89.8328 158.731 89.8568 158.898 89.8459C159.555 89.8452 160.211 89.808 160.862 89.7348C161.263 89.6898 161.728 89.5859 161.882 89.2435C162.086 88.7935 161.594 88.2843 161.737 87.8152C161.831 87.6054 161.974 87.4171 162.156 87.2634C162.246 87.186 162.316 87.0903 162.359 86.984C162.401 86.8777 162.417 86.7637 162.403 86.6509C162.345 86.4308 161.979 86.306 161.847 86.4972" fill="#3F3D56"/>
<path d="M165.072 82.1738C164.488 82.0507 163.887 82.016 163.292 82.0711C163.16 82.0675 163.029 82.0947 162.912 82.1503C162.799 82.2272 162.716 82.3367 162.678 82.4615C162.553 82.8326 162.584 83.2336 162.765 83.5847C162.946 83.9358 163.265 84.2111 163.658 84.356C163.871 84.4012 164.076 84.4768 164.265 84.5802C164.768 84.9393 164.447 85.6733 164.543 86.2525C164.65 86.9029 165.334 87.4489 165.209 88.0965C165.11 88.6066 164.517 89.0106 164.613 89.5214C164.713 90.0563 165.451 90.2171 166.04 90.2599C166.381 90.3148 166.732 90.2778 167.051 90.1534C167.37 89.9526 167.598 89.65 167.689 89.3042C167.93 88.6449 168.031 87.9491 167.987 87.2547C167.984 86.9389 167.898 86.6284 167.736 86.3501C167.558 86.1297 167.362 85.9229 167.148 85.7317C166.02 84.5259 167.208 82.7272 165.072 82.1738Z" fill="#3F3D56"/>
<path opacity="0.8" d="M313.372 176.637C313.372 176.637 226.996 131.061 189.81 139.696C189.81 139.696 111.001 147.492 101.867 164.643C101.867 164.643 76.8157 92.6804 67.6823 90.2817" stroke="#6C63FF" stroke-width="2" stroke-miterlimit="10"/>
<path opacity="0.8" d="M101.867 164.643C116.35 129.142 246.828 89.8019 246.828 89.8019C228.3 94.1197 189.809 139.696 189.809 139.696C189.809 139.696 108.391 85.2443 67.6823 90.2817C67.6823 90.2817 246.959 95.6789 313.372 176.637" stroke="#6C63FF" stroke-width="2" stroke-miterlimit="10"/>
<path d="M67.6823 93.7599C69.7721 93.7599 71.4662 92.2027 71.4662 90.2817C71.4662 88.3607 69.7721 86.8035 67.6823 86.8035C65.5925 86.8035 63.8984 88.3607 63.8984 90.2817C63.8984 92.2027 65.5925 93.7599 67.6823 93.7599Z" fill="#6C63FF"/>
<path d="M101.867 168.122C103.957 168.122 105.651 166.564 105.651 164.643C105.651 162.722 103.957 161.165 101.867 161.165C99.7777 161.165 98.0836 162.722 98.0836 164.643C98.0836 166.564 99.7777 168.122 101.867 168.122Z" fill="#6C63FF"/>
<path d="M246.828 93.2802C248.918 93.2802 250.612 91.7229 250.612 89.8019C250.612 87.881 248.918 86.3237 246.828 86.3237C244.739 86.3237 243.044 87.881 243.044 89.8019C243.044 91.7229 244.739 93.2802 246.828 93.2802Z" fill="#6C63FF"/>
<path d="M313.372 180.115C315.462 180.115 317.156 178.558 317.156 176.637C317.156 174.716 315.462 173.159 313.372 173.159C311.282 173.159 309.588 174.716 309.588 176.637C309.588 178.558 311.282 180.115 313.372 180.115Z" fill="#6C63FF"/>
<path d="M189.809 143.175C191.899 143.175 193.593 141.617 193.593 139.696C193.593 137.775 191.899 136.218 189.809 136.218C187.72 136.218 186.026 137.775 186.026 139.696C186.026 141.617 187.72 143.175 189.809 143.175Z" fill="#6C63FF"/>
</g>
<defs>
<clipPath id="clip0">
<rect width="372" height="254" fill="white"/>
</clipPath>
</defs>
</svg>
