<svg width="639" height="476" viewBox="0 0 639 476" fill="none" xmlns="http://www.w3.org/2000/svg">
<path d="M630.067 1.56091e-08H8.9229C6.55702 0.00233644 4.28865 1.02279 2.61574 2.83729C0.942835 4.6518 0.0020782 7.1121 0 9.67816V466.194C0.00207549 468.76 0.942834 471.221 2.61574 473.035C4.28865 474.85 6.55702 475.87 8.9229 475.872H630.067C631.357 475.872 632.632 475.569 633.803 474.982C634.974 474.396 636.014 473.541 636.851 472.476C636.922 472.393 636.987 472.304 637.046 472.21C637.579 471.503 638.01 470.714 638.325 469.868C638.774 468.704 639.004 467.455 639 466.194V9.67823C638.997 7.11034 638.055 4.6486 636.38 2.83387C634.705 1.01915 632.434 -0.000145643 630.067 1.56091e-08V1.56091e-08ZM636.452 466.194C636.453 467.545 636.086 468.865 635.398 469.99C634.786 470.98 633.956 471.789 632.983 472.343C632.082 472.848 631.081 473.111 630.067 473.109H8.9229C7.23274 473.107 5.61236 472.377 4.41723 471.081C3.2221 469.785 2.54978 468.027 2.54773 466.194V9.67823C2.54977 7.84505 3.2221 6.08756 4.41723 4.7913C5.61236 3.49504 7.23273 2.76582 8.9229 2.76359H630.067C631.758 2.76336 633.381 3.49145 634.578 4.78792C635.776 6.08438 636.45 7.84325 636.452 9.67823V466.194Z" fill="#3F3D56"/>
<path d="M637.721 38.7896H1.27173V41.5563H637.721V38.7896Z" fill="#3F3D56"/>
<path d="M44.9557 29.0506C49.1821 29.0506 52.6084 25.3345 52.6084 20.7504C52.6084 16.1664 49.1821 12.4503 44.9557 12.4503C40.7292 12.4503 37.303 16.1664 37.303 20.7504C37.303 25.3345 40.7292 29.0506 44.9557 29.0506Z" fill="#3F3D56"/>
<path d="M66.9571 29.0506C71.1836 29.0506 74.6098 25.3345 74.6098 20.7504C74.6098 16.1664 71.1836 12.4503 66.9571 12.4503C62.7307 12.4503 59.3044 16.1664 59.3044 20.7504C59.3044 25.3345 62.7307 29.0506 66.9571 29.0506Z" fill="#3F3D56"/>
<path d="M283.431 273.996C275.777 268.593 271.971 256.034 273.846 244.549C275.721 233.064 282.784 223.172 291.25 218.906C295.368 216.893 299.883 216.021 304.389 216.368C308.895 216.716 313.251 218.272 317.065 220.896C324.829 226.046 335.809 228.866 339.496 239.168C342.33 247.085 338.736 263.161 334.923 270.85C331.627 277.496 325.364 280.536 319.48 281.857C312.97 283.297 306.251 283.204 299.777 281.584C293.304 279.964 287.226 276.855 281.956 272.467L283.431 273.996Z" fill="#2F2E41"/>
<path d="M279.439 334.996L273.319 346.439L272.511 347.948L271.334 350.168H253.293L254.511 347.948L257.663 342.188L265.01 328.736L273.33 332.343L279.439 334.996Z" fill="#FFB8B8"/>
<path d="M251.943 350.167L248.648 347.948L248.239 347.67L268.919 306.793C269.809 305.024 271.013 303.464 272.462 302.202C273.911 300.941 275.577 300.004 277.362 299.446C279.615 298.718 282.003 298.622 284.3 299.168C285.64 299.475 286.93 299.999 288.127 300.722C288.619 301.015 289.094 301.341 289.549 301.699C291.298 303.029 292.735 304.785 293.745 306.826C294.947 309.216 295.54 311.91 295.465 314.631C295.389 317.352 294.647 320.002 293.315 322.309L285.343 336.127L278.528 347.948L277.249 350.167H251.943V350.167Z" fill="#2F2E41"/>
<path d="M305.077 288.504C318.958 288.504 330.21 276.299 330.21 261.244C330.21 246.189 318.958 233.984 305.077 233.984C291.196 233.984 279.944 246.189 279.944 261.244C279.944 276.299 291.196 288.504 305.077 288.504Z" fill="#FFB8B8"/>
<path d="M330.307 350.167H273.811L274.067 349.379C273.923 348.902 273.79 348.425 273.668 347.948C273.535 347.448 273.422 346.938 273.32 346.438C272.402 341.792 272.405 336.987 273.33 332.343C276.451 315.717 288.905 302.209 288.905 302.209C289.12 302.032 289.334 301.865 289.549 301.699C291.402 300.228 293.412 299.005 295.536 298.058C304.786 293.896 314.487 295.572 321.005 297.725C323.275 298.47 325.495 299.386 327.647 300.467C328.404 300.855 328.813 301.1 328.813 301.1L329.458 322.42L330.235 347.948L330.307 350.167Z" fill="#282456"/>
<path d="M356.443 347.948L352.124 324.13L347.765 300.112C347.583 299.12 347.129 298.211 346.463 297.504C345.796 296.796 344.948 296.324 344.03 296.149L334.902 294.44L326.409 292.853C325.589 292.693 324.745 292.779 323.968 293.102C323.191 293.425 322.509 293.972 321.998 294.684C321.36 295.547 321.01 296.619 321.005 297.726C321.006 298.409 321.134 299.085 321.384 299.712C325.815 310.922 325.897 328.669 324.771 347.948C324.72 348.68 324.679 349.424 324.628 350.167H356.852L356.443 347.948Z" fill="#2F2E41"/>
<path d="M295.536 298.058C295.348 297.251 294.978 296.506 294.458 295.892C293.939 295.278 293.288 294.814 292.562 294.541C291.837 294.268 291.06 294.195 290.302 294.328C289.543 294.462 288.828 294.798 288.219 295.306L284.3 299.168L268.254 315.017C267.754 315.504 267.362 316.107 267.108 316.782C265.297 321.477 261.767 330.744 257.663 342.187C256.998 344.052 256.312 345.972 255.606 347.947C255.361 348.68 255.095 349.424 254.828 350.167H281.271C281.486 349.424 281.701 348.68 281.915 347.947C283.092 343.919 284.238 339.967 285.344 336.127C288.577 324.973 291.493 314.84 293.745 306.826C294.369 304.607 294.939 302.557 295.454 300.678C295.694 299.828 295.722 298.924 295.536 298.058V298.058Z" fill="#2F2E41"/>
<path d="M362.378 350.168H364.086L363.851 349.546L363.227 347.948L353.598 323.164L352.124 324.13L340.295 331.888L346.363 347.948L347.202 350.168H356.852H362.378Z" fill="#FFB8B8"/>
<path d="M352.615 303.508C351.312 299.809 348.741 296.8 345.44 295.11C342.139 293.42 338.363 293.18 334.902 294.44C334.46 294.599 334.026 294.784 333.602 294.995C331.178 296.168 329.112 298.066 327.647 300.467C327.049 301.425 326.558 302.457 326.183 303.541C325.519 305.423 325.205 307.428 325.26 309.441C325.314 311.455 325.736 313.437 326.501 315.273L329.458 322.42L340.039 347.948L340.96 350.167H362.378L363.851 349.546L367.678 347.948L368.211 347.726L352.615 303.508Z" fill="#2F2E41"/>
<path d="M324.816 229.936C325.693 230.221 326.631 230.184 327.486 229.832C328.341 229.48 329.065 228.833 329.546 227.989C330.002 227.129 330.27 226.168 330.33 225.178C330.39 224.189 330.24 223.198 329.892 222.281C329.179 220.45 328.055 218.842 326.623 217.603C324.996 216.006 323.015 214.894 320.874 214.375C319.805 214.125 318.698 214.128 317.629 214.383C316.561 214.638 315.555 215.139 314.681 215.852C313.822 216.589 313.185 217.587 312.852 218.718C312.52 219.85 312.506 221.063 312.812 222.203C313.463 224.25 315.226 225.621 316.986 226.643C320.479 228.665 324.33 229.853 328.281 230.126L324.816 229.936Z" fill="#2F2E41"/>
<path d="M329.706 260.43C325.665 261.034 326.184 258.803 324.566 254.743C322.947 250.682 320.781 245.861 316.72 245.449C313.392 245.112 310.649 247.998 307.953 250.141C303.147 253.961 296.671 255.83 291.1 253.539C285.529 251.247 281.658 244.047 283.772 238.005C284.43 236.337 285.397 234.833 286.612 233.586C287.828 232.34 289.267 231.377 290.839 230.758C293.994 229.542 297.345 229.037 300.686 229.275C308.117 229.532 315.405 231.556 322.036 235.202C326.613 237.724 331.068 241.333 332.804 246.572C334.54 251.812 335.682 259.174 330.718 260.592L329.706 260.43Z" fill="#2F2E41"/>
<path d="M322.751 215.525C320.754 211.754 322.402 206.58 325.67 204.061C328.938 201.541 333.322 201.294 337.222 202.305C341.078 203.358 344.611 205.493 347.467 208.496C350.323 211.498 352.401 215.261 353.492 219.409C355.147 226.004 354.163 233.086 355.565 239.749C356.312 243.3 357.721 246.649 359.706 249.587C361.691 252.526 364.21 254.993 367.107 256.836C370.005 258.679 373.219 259.859 376.553 260.304C379.886 260.748 383.269 260.448 386.491 259.422C390.689 258.085 394.955 254.834 395.367 250.111C395.802 255.535 394.662 260.971 392.106 265.658C389.55 270.345 385.707 274.047 381.115 276.247C375.707 278.694 369.674 278.854 363.816 278.691C359.999 278.584 356.094 278.335 352.572 276.733C350.136 275.528 347.945 273.807 346.129 271.672C344.314 269.537 342.909 267.03 341.998 264.298C340.205 258.808 339.721 252.915 340.591 247.167C341.167 242.696 342.313 238.314 342.634 233.813C342.955 229.312 342.347 224.506 339.788 220.945C337.23 217.384 332.343 215.565 328.705 217.76C327.244 218.642 326.064 220.082 324.476 220.651C322.888 221.221 320.637 220.22 320.781 218.413L322.751 215.525Z" fill="#2F2E41"/>
<path d="M494.26 350.167L494.455 347.947L500.226 282.82C502.118 281.213 504.151 279.812 506.295 278.635C518.175 272.143 529.636 275.25 535.837 277.936C537.481 278.634 539.069 279.477 540.585 280.456L543.963 347.947L544.075 350.167H494.26Z" fill="#282456"/>
<path d="M521.289 265.487C535.17 265.487 546.422 253.282 546.422 238.227C546.422 223.172 535.17 210.967 521.289 210.967C507.408 210.967 496.156 223.172 496.156 238.227C496.156 253.282 507.408 265.487 521.289 265.487Z" fill="#FFB8B8"/>
<path d="M541.681 254.848C543.549 252.713 544.79 250.023 545.244 247.121C545.699 244.218 545.347 241.235 544.234 238.55C543.121 235.865 541.297 233.6 538.994 232.043C536.691 230.486 534.012 229.706 531.3 229.805C527.824 229.931 524.549 231.473 521.232 232.606C516.206 234.46 510.843 234.984 505.591 234.133C500.309 233.244 495.541 230.191 492.272 225.603C489.162 220.968 488.192 214.538 490.389 209.324C492.925 203.305 498.849 199.988 504.422 197.293C506.67 196.073 509.07 195.217 511.547 194.754C512.788 194.531 514.058 194.588 515.277 194.921C516.497 195.254 517.64 195.857 518.635 196.692C520.201 198.153 521.119 200.349 522.823 201.615C524.741 203.04 527.233 203.003 529.547 203.254C534.758 203.82 539.687 206.093 543.679 209.771C547.67 213.45 550.534 218.359 551.89 223.846C553.246 229.333 553.03 235.137 551.27 240.488C549.511 245.838 546.291 250.481 542.039 253.798L541.681 254.848Z" fill="#2F2E41"/>
<path d="M510.04 289.912L506.295 278.636L506.061 277.933C505.95 277.599 505.771 277.298 505.537 277.051C505.302 276.804 505.02 276.618 504.709 276.507C504.399 276.396 504.07 276.363 503.746 276.411C503.422 276.459 503.113 276.586 502.841 276.782L498.589 279.856C498.589 279.856 471.318 279.856 469.128 297.603C469.098 297.881 469.057 298.192 469.026 298.525C469.025 298.54 469.021 298.555 469.016 298.569C468.739 299.734 463.592 321.31 459.171 347.948C459.049 348.68 458.926 349.424 458.803 350.167H518.063V350.167C519.991 323.409 518.912 298.53 510.04 289.912Z" fill="#2F2E41"/>
<path d="M580.729 347.948C577.496 320.622 572.871 298.525 572.871 298.525C572.83 298.192 572.789 297.881 572.758 297.603C570.578 279.856 543.307 279.856 543.307 279.856L539.058 276.784C538.786 276.587 538.476 276.46 538.152 276.412C537.829 276.365 537.499 276.398 537.189 276.509C536.878 276.62 536.595 276.806 536.361 277.054C536.127 277.301 535.948 277.603 535.837 277.936L531.857 289.912C522.984 298.53 521.906 323.409 523.834 350.167L523.834 350.167H580.985C580.903 349.424 580.811 348.68 580.729 347.948Z" fill="#2F2E41"/>
<path d="M100.719 285.728L94.6408 347.948L94.4259 350.167H77.9817C78.1761 349.446 78.3704 348.702 78.5753 347.948C83.2416 330.589 89.5962 305.25 88.9102 298.536C87.836 288.058 95.3573 284.562 95.3573 284.562L95.828 284.662L100.719 285.728Z" fill="#282456"/>
<path d="M127.24 266.523C141.121 266.523 152.373 254.318 152.373 239.263C152.373 224.208 141.121 212.003 127.24 212.003C113.359 212.003 102.107 224.208 102.107 239.263C102.107 254.318 113.359 266.523 127.24 266.523Z" fill="#A0616A"/>
<path d="M159.774 336.96C158.507 339.494 157.468 342.155 156.674 344.906C156.377 345.883 156.09 346.904 155.824 347.948C155.63 348.669 155.456 349.413 155.282 350.167H88.9922C89.0846 349.435 89.1661 348.691 89.2585 347.948C92.6457 318.924 95.3878 289.468 95.828 284.662C95.869 284.207 95.8895 283.974 95.8895 283.974C135.614 261.266 164.604 290.966 164.604 290.966C164.604 290.966 164.645 291.177 164.706 291.588C165.341 295.739 168.574 319.979 159.774 336.96Z" fill="#282456"/>
<path d="M156.674 344.906L152.253 334.629L153.327 293.874L164.707 291.588L165.106 291.51C170.988 295.219 175.539 300.977 178.02 307.848C180.23 313.841 184.436 331.865 187.987 347.947C188.151 348.691 188.314 349.435 188.478 350.167H158.935L157.983 347.947L156.674 344.906Z" fill="#282456"/>
<path d="M197.105 167.037H51.7753C48.6581 167.041 45.6696 168.386 43.4654 170.777C41.2612 173.167 40.0211 176.409 40.0173 179.79V337.415C40.0211 340.796 41.2612 344.037 43.4654 346.428C45.6696 348.818 48.6581 350.163 51.7753 350.167H197.105C200.222 350.165 203.212 348.821 205.416 346.43C207.621 344.039 208.86 340.796 208.862 337.415V179.79C208.86 176.408 207.621 173.166 205.416 170.775C203.212 168.384 200.222 167.039 197.105 167.037ZM206.815 337.415C206.813 340.207 205.79 342.885 203.969 344.86C202.148 346.835 199.679 347.945 197.105 347.948H51.7753C49.2009 347.943 46.7331 346.832 44.9127 344.858C43.0923 342.884 42.0679 340.207 42.0639 337.415V179.79C42.0679 176.997 43.0923 174.321 44.9127 172.346C46.7331 170.372 49.2009 169.261 51.7753 169.257H197.105C199.679 169.259 202.148 170.37 203.969 172.344C205.79 174.319 206.813 176.997 206.815 179.79V337.415ZM94.641 347.948L94.4261 350.167H155.282C155.456 349.413 155.63 348.669 155.824 347.948H94.641Z" fill="#3F3D56"/>
<path d="M392.156 167.037H246.827C243.709 167.041 240.721 168.386 238.517 170.777C236.312 173.167 235.072 176.409 235.069 179.79V337.415C235.072 340.796 236.312 344.037 238.517 346.428C240.721 348.818 243.709 350.163 246.827 350.167H392.156C395.273 350.165 398.263 348.821 400.467 346.43C402.672 344.039 403.911 340.796 403.913 337.415V179.79C403.911 176.408 402.672 173.166 400.467 170.775C398.263 168.384 395.273 167.039 392.156 167.037V167.037ZM401.867 337.415C401.864 340.207 400.841 342.885 399.02 344.86C397.199 346.835 394.731 347.945 392.156 347.948H246.827C244.252 347.943 241.784 346.832 239.964 344.858C238.144 342.884 237.119 340.207 237.115 337.415V179.79C237.119 176.997 238.144 174.321 239.964 172.346C241.784 170.372 244.252 169.261 246.827 169.257H392.156C394.731 169.259 397.199 170.37 399.02 172.344C400.841 174.319 401.864 176.997 401.867 179.79V337.415ZM273.668 347.948C273.791 348.425 273.924 348.902 274.067 349.379L273.811 350.167H324.628C324.679 349.424 324.72 348.68 324.771 347.948H273.668Z" fill="#3F3D56"/>
<path d="M587.217 167.037H441.888C438.77 167.039 435.781 168.383 433.576 170.774C431.372 173.166 430.132 176.408 430.13 179.79V337.415C430.132 340.796 431.372 344.039 433.576 346.43C435.781 348.821 438.77 350.165 441.888 350.167H587.217C590.335 350.163 593.323 348.818 595.527 346.428C597.731 344.037 598.971 340.796 598.975 337.415V179.79C598.971 176.409 597.731 173.167 595.527 170.777C593.323 168.386 590.335 167.041 587.217 167.037ZM596.928 337.415C596.924 340.207 595.9 342.884 594.08 344.858C592.259 346.832 589.792 347.943 587.217 347.948H441.888C439.313 347.945 436.844 346.835 435.024 344.86C433.203 342.885 432.179 340.208 432.177 337.415V179.79C432.179 176.997 433.203 174.319 435.024 172.344C436.844 170.369 439.313 169.259 441.888 169.257H587.217C589.792 169.261 592.259 170.372 594.08 172.346C595.9 174.321 596.924 176.997 596.928 179.79V337.415ZM518.216 347.948C518.165 348.68 518.114 349.424 518.063 350.167H562.156C562.238 349.435 562.33 348.691 562.412 347.948H518.216Z" fill="#3F3D56"/>
<path d="M488.341 414.54H150.651C148.48 414.54 146.398 413.605 144.863 411.94C143.327 410.275 142.465 408.016 142.465 405.661C142.465 403.306 143.327 401.048 144.863 399.383C146.398 397.718 148.48 396.782 150.651 396.782H488.341C490.512 396.782 492.594 397.718 494.129 399.383C495.665 401.048 496.527 403.306 496.527 405.661C496.527 408.016 495.665 410.275 494.129 411.94C492.594 413.605 490.512 414.54 488.341 414.54Z" fill="#CCCCCC"/>
<path d="M393.685 120.422H245.307C243.136 120.422 241.053 119.487 239.518 117.822C237.983 116.156 237.12 113.898 237.12 111.543C237.12 109.188 237.983 106.93 239.518 105.265C241.053 103.599 243.136 102.664 245.307 102.664H393.685C395.857 102.664 397.939 103.599 399.474 105.265C401.009 106.93 401.872 109.188 401.872 111.543C401.872 113.898 401.009 116.156 399.474 117.822C397.939 119.487 395.857 120.422 393.685 120.422Z" fill="#282456"/>
<path d="M139.262 263.013C140.113 263.923 141.238 264.47 142.431 264.553C143.624 264.636 144.804 264.249 145.755 263.464C151.679 258.702 156.879 252.774 159.957 245.543C163.483 237.258 163.876 227.091 159.625 219.216C156.03 212.56 149.684 208.264 143.358 204.737C140.902 203.233 138.257 202.127 135.506 201.454C132.725 200.789 129.815 201.298 127.369 202.878C126.172 203.692 125.229 204.878 124.663 206.282C124.097 207.686 123.934 209.243 124.196 210.748C121.158 206.988 117.266 204.155 112.907 202.529C110.162 201.364 107.157 201.128 104.286 201.851C100.272 203.086 97.3412 206.954 95.7384 211.132C94.4422 214.31 93.9946 217.819 94.4465 221.26C94.6843 222.972 95.2508 224.61 96.1094 226.07C96.9679 227.53 98.0994 228.778 99.4306 229.733C102.749 231.96 106.983 231.8 110.794 230.89C114.606 229.98 118.295 228.397 122.18 227.997C126.065 227.597 130.392 228.648 132.756 232.015C134.421 234.387 134.849 237.485 135.222 240.438L137.166 255.798C137.325 258.02 137.849 260.193 138.711 262.216C138.861 262.507 139.046 262.775 139.262 263.013Z" fill="#2F2E41"/>
<path d="M22.9542 29.0506C27.1807 29.0506 30.6069 25.3345 30.6069 20.7504C30.6069 16.1664 27.1807 12.4503 22.9542 12.4503C18.7277 12.4503 15.3015 16.1664 15.3015 20.7504C15.3015 25.3345 18.7277 29.0506 22.9542 29.0506Z" fill="#3F3D56"/>
</svg>
