<svg width="308" height="204" viewBox="0 0 308 204" fill="none" xmlns="http://www.w3.org/2000/svg">
<g clip-path="url(#clip0)">
<path d="M287.703 203.256C283.712 200.497 281.703 195.25 281.624 190.289C281.597 188.626 282.003 186.697 283.446 185.957C283.858 185.746 284.32 185.656 284.779 185.698C285.238 185.739 285.677 185.911 286.047 186.195C286.418 186.478 286.705 186.861 286.878 187.303C287.052 187.744 287.104 188.226 287.028 188.696C287.563 187.078 288.257 185.52 289.099 184.048C289.811 182.802 290.812 181.504 292.209 181.386C293.829 181.249 295.182 182.874 295.412 184.537C295.641 186.2 295.056 187.855 294.48 189.426C294.643 188.714 294.975 188.056 295.448 187.512C295.92 186.968 296.517 186.554 297.183 186.31C297.85 186.066 298.565 185.998 299.264 186.114C299.962 186.229 300.622 186.523 301.182 186.97C302.766 188.234 303.288 190.559 302.89 192.586C302.491 194.613 301.321 196.386 300.026 197.963C298.508 199.813 296.751 201.503 294.647 202.577C292.543 203.65 290.055 204.061 287.816 203.333L287.703 203.256Z" fill="#F2F2F2"/>
<path d="M233.125 136.826C233.674 136.544 234.156 136.14 234.538 135.644C234.92 135.148 235.193 134.572 235.336 133.956C235.479 133.339 235.489 132.698 235.366 132.077C235.244 131.456 234.991 130.87 234.625 130.361L244.402 81.3089L235.279 81.1847L228.489 129.615C227.702 130.306 227.188 131.271 227.044 132.328C226.9 133.385 227.136 134.459 227.707 135.348C228.279 136.237 229.146 136.878 230.144 137.151C231.143 137.423 232.203 137.308 233.125 136.826V136.826Z" fill="#FFB8B8"/>
<path d="M277.564 134.279C278.013 133.846 278.363 133.317 278.592 132.729C278.821 132.141 278.922 131.508 278.889 130.875C278.856 130.242 278.688 129.625 278.399 129.066C278.109 128.507 277.705 128.02 277.214 127.641L273.015 77.747L264.237 80.3228L271.127 128.738C270.564 129.632 270.339 130.709 270.493 131.765C270.647 132.82 271.171 133.78 271.964 134.463C272.758 135.146 273.766 135.504 274.798 135.47C275.83 135.437 276.815 135.013 277.564 134.279V134.279Z" fill="#FFB8B8"/>
<path d="M249.41 198.629L244.621 198.629L242.344 179.544L249.41 179.544L249.41 198.629Z" fill="#FFB8B8"/>
<path d="M241.201 197.215H250.436V203.223H235.387C235.387 201.63 236 200.102 237.09 198.975C238.18 197.848 239.659 197.215 241.201 197.215V197.215Z" fill="#2F2E41"/>
<path d="M270.89 198.629L266.102 198.629L263.824 179.544L270.891 179.544L270.89 198.629Z" fill="#FFB8B8"/>
<path d="M262.682 197.215H271.917V203.223H256.868C256.868 201.63 257.481 200.102 258.571 198.975C259.661 197.848 261.14 197.215 262.682 197.215V197.215Z" fill="#2F2E41"/>
<path d="M250.65 62.2711C255.948 62.2711 260.243 57.8331 260.243 52.3586C260.243 46.884 255.948 42.446 250.65 42.446C245.353 42.446 241.058 46.884 241.058 52.3586C241.058 57.8331 245.353 62.2711 250.65 62.2711Z" fill="#FFB8B8"/>
<path d="M264.136 186.587C263.745 186.585 263.368 186.444 263.066 186.187C262.765 185.931 262.559 185.574 262.483 185.179L255.998 150.508C255.939 150.19 255.771 149.905 255.526 149.704C255.281 149.504 254.974 149.4 254.661 149.413C254.349 149.426 254.051 149.555 253.822 149.775C253.593 149.996 253.448 150.294 253.414 150.615L249.782 184.386C249.74 184.799 249.555 185.181 249.262 185.465C248.969 185.748 248.588 185.913 248.187 185.93L242.741 186.186C242.519 186.198 242.298 186.164 242.089 186.086C241.881 186.008 241.69 185.887 241.528 185.731C241.364 185.577 241.231 185.391 241.138 185.183C241.045 184.975 240.992 184.751 240.984 184.522L238.895 132.354C238.884 132.091 238.931 131.828 239.033 131.587C239.136 131.345 239.29 131.131 239.484 130.96L240.692 129.896C240.997 129.627 241.383 129.48 241.784 129.48H270.013C270.459 129.48 270.886 129.664 271.202 129.99C271.517 130.315 271.694 130.757 271.695 131.218V184.584C271.696 185.033 271.529 185.464 271.229 185.787C270.929 186.111 270.519 186.302 270.086 186.321L264.208 186.585C264.184 186.586 264.16 186.587 264.136 186.587Z" fill="#2F2E41"/>
<path d="M249.678 137.07C245.114 137.07 241.091 135.814 239.06 132.148C238.89 131.846 238.811 131.499 238.831 131.151L241.383 90.8417C241.404 90.5157 241.31 90.1931 241.118 89.9334L233.958 80.2318C233.823 80.05 233.725 79.8426 233.669 79.6215C233.612 79.4004 233.599 79.1699 233.628 78.9433C233.658 78.7167 233.731 78.4985 233.843 78.3011C233.955 78.1037 234.103 77.931 234.279 77.7929L245.021 69.3839C245.246 69.2068 245.41 68.9591 245.488 68.6778L245.801 67.5463C245.898 67.1938 246.101 66.8821 246.38 66.6558C246.658 66.4296 247 66.3004 247.354 66.2868L255.236 65.9734C255.499 65.9643 255.76 66.0184 255.999 66.1314C256.238 66.2445 256.449 66.4134 256.614 66.6248L257.453 67.7081C257.559 67.8464 257.692 67.9616 257.842 68.0472L271.023 75.5743C271.283 75.7233 271.501 75.9408 271.653 76.2047C271.806 76.4687 271.888 76.7696 271.891 77.077L271.892 77.1011L271.886 77.1241C268.814 90.363 268.986 107.096 272.43 129.786C272.439 130.132 272.348 130.473 272.169 130.766C271.989 131.058 271.729 131.288 271.422 131.426C268.569 132.703 258.185 137.07 249.678 137.07Z" fill="#282456"/>
<path d="M241.652 95.4909H232.724C232.495 95.4912 232.268 95.4432 232.058 95.3497C231.848 95.2562 231.658 95.1193 231.501 94.9473C231.344 94.7753 231.222 94.5718 231.144 94.3495C231.065 94.1272 231.032 93.8906 231.045 93.6544C231.178 91.3041 231.44 86.8345 231.702 83.3097C232.08 78.2373 236.889 75.7407 236.938 75.7158L237.032 75.6682L240.279 77.7982L243.301 93.4122C243.35 93.6643 243.344 93.9245 243.283 94.174C243.223 94.4234 243.11 94.6559 242.952 94.8548C242.795 95.0536 242.596 95.2138 242.371 95.3238C242.146 95.4338 241.901 95.4909 241.652 95.4909H241.652Z" fill="#282456"/>
<path d="M266.115 94.6298C265.879 94.6282 265.647 94.5757 265.432 94.4754C265.217 94.3752 265.025 94.2296 264.869 94.0479C264.712 93.8663 264.594 93.6527 264.522 93.4209C264.45 93.1891 264.426 92.9443 264.451 92.7023L266.098 77.0389L269.282 74.6299L269.354 74.6382C269.388 74.6423 272.779 75.0798 274.298 79.0041C275.38 81.7986 277.032 86.9635 277.921 89.7935C277.992 90.0209 278.017 90.2611 277.994 90.4991C277.972 90.737 277.901 90.9675 277.789 91.1761C277.676 91.3848 277.522 91.567 277.338 91.7115C277.153 91.856 276.942 91.9596 276.717 92.0159L266.521 94.5788C266.388 94.6126 266.252 94.6297 266.115 94.6298V94.6298Z" fill="#282456"/>
<path d="M250.869 62.3402C252.92 58.986 250.359 49.7527 244.778 49.5118C243.489 49.4561 242.994 47.5185 242.556 46.2651C242.333 45.5384 242.274 44.7686 242.383 44.0146C242.492 43.2606 242.766 42.5423 243.185 41.9147C244.038 40.664 245.211 39.6844 246.574 39.0862C248.106 38.3587 249.772 37.9803 251.459 37.9768C253.145 37.9733 254.813 38.3448 256.348 39.066C257.884 39.7872 259.251 40.8412 260.357 42.1566C261.464 43.472 262.283 45.018 262.76 46.6896C263.238 48.3612 263.361 50.1193 263.123 51.8446C262.885 53.5699 262.29 55.222 261.379 56.6889C260.468 58.1558 259.263 59.403 257.845 60.346C256.426 61.289 254.828 61.9057 253.159 62.1542L250.869 62.3402Z" fill="#2F2E41"/>
<path d="M192.938 0H2.73394C2.0091 0.000831091 1.31418 0.298748 0.801638 0.828381C0.289099 1.35801 0.000804266 2.07611 0 2.82512V136.01C0.000805298 136.759 0.289099 137.477 0.801638 138.006C1.31418 138.536 2.0091 138.834 2.73394 138.835H192.938C193.663 138.834 194.358 138.536 194.87 138.006C195.383 137.477 195.671 136.759 195.672 136.01V2.82512C195.671 2.07611 195.383 1.35801 194.87 0.828381C194.358 0.298748 193.663 0.000831091 192.938 0V0ZM194.891 136.01C194.89 136.545 194.685 137.058 194.318 137.436C193.952 137.815 193.456 138.027 192.938 138.027H2.73394C2.21608 138.027 1.71949 137.815 1.35332 137.436C0.987137 137.058 0.781332 136.545 0.781125 136.01V2.82512C0.781332 2.29 0.987137 1.77685 1.35332 1.39846C1.71949 1.02007 2.21608 0.807392 2.73394 0.807178H192.938C193.456 0.807392 193.952 1.02007 194.318 1.39846C194.685 1.77685 194.89 2.29 194.891 2.82512V136.01Z" fill="#3F3D56"/>
<path d="M195.281 11.3166H0.390503V12.1238H195.281V11.3166Z" fill="#3F3D56"/>
<path d="M7.03014 8.47536C8.32435 8.47536 9.37352 7.3912 9.37352 6.05383C9.37352 4.71645 8.32435 3.63229 7.03014 3.63229C5.73593 3.63229 4.68677 4.71645 4.68677 6.05383C4.68677 7.3912 5.73593 8.47536 7.03014 8.47536Z" fill="#3F3D56"/>
<path d="M13.7673 8.47536C15.0615 8.47536 16.1107 7.3912 16.1107 6.05383C16.1107 4.71645 15.0615 3.63229 13.7673 3.63229C12.4731 3.63229 11.424 4.71645 11.424 6.05383C11.424 7.3912 12.4731 8.47536 13.7673 8.47536Z" fill="#3F3D56"/>
<path d="M20.5045 8.47536C21.7987 8.47536 22.8479 7.3912 22.8479 6.05383C22.8479 4.71645 21.7987 3.63229 20.5045 3.63229C19.2103 3.63229 18.1611 4.71645 18.1611 6.05383C18.1611 7.3912 19.2103 8.47536 20.5045 8.47536Z" fill="#3F3D56"/>
<path d="M157.72 38.932H36.6451C35.0396 38.932 33.4998 38.273 32.3645 37.0998C31.2292 35.9267 30.5914 34.3355 30.5914 32.6764C30.5914 31.0173 31.2292 29.4262 32.3645 28.253C33.4998 27.0799 35.0396 26.4208 36.6451 26.4208H157.72C159.325 26.4208 160.865 27.0799 162 28.253C163.135 29.4262 163.773 31.0173 163.773 32.6764C163.773 34.3355 163.135 35.9267 162 37.0998C160.865 38.273 159.325 38.932 157.72 38.932V38.932ZM36.6451 27.228C35.2468 27.228 33.9057 27.802 32.9169 28.8238C31.9281 29.8456 31.3726 31.2314 31.3726 32.6764C31.3726 34.1214 31.9281 35.5073 32.9169 36.5291C33.9057 37.5508 35.2468 38.1249 36.6451 38.1249H157.72C159.118 38.1249 160.459 37.5508 161.448 36.5291C162.437 35.5073 162.992 34.1214 162.992 32.6764C162.992 31.2314 162.437 29.8456 161.448 28.8238C160.459 27.802 159.118 27.228 157.72 27.228H36.6451Z" fill="#3F3D56"/>
<path d="M67.8902 70.8156H44.4564C42.8509 70.8156 41.3111 70.1565 40.1758 68.9834C39.0405 67.8102 38.4027 66.2191 38.4027 64.56C38.4027 62.9009 39.0405 61.3097 40.1758 60.1366C41.3111 58.9634 42.8509 58.3043 44.4564 58.3043H67.8902C69.4957 58.3043 71.0355 58.9634 72.1708 60.1366C73.3061 61.3097 73.9439 62.9009 73.9439 64.56C73.9439 66.2191 73.3061 67.8102 72.1708 68.9834C71.0355 70.1565 69.4957 70.8156 67.8902 70.8156V70.8156ZM44.4564 59.1115C43.058 59.1115 41.7169 59.6855 40.7281 60.7073C39.7393 61.7291 39.1838 63.1149 39.1838 64.56C39.1838 66.005 39.7393 67.3908 40.7281 68.4126C41.7169 69.4344 43.058 70.0084 44.4564 70.0084H67.8902C69.2886 70.0084 70.6297 69.4344 71.6185 68.4126C72.6073 67.3908 73.1628 66.005 73.1628 64.56C73.1628 63.1149 72.6073 61.7291 71.6185 60.7073C70.6297 59.6855 69.2886 59.1115 67.8902 59.1115H44.4564Z" fill="#3F3D56"/>
<path d="M67.8902 91.8022H44.4564C42.8509 91.8022 41.3111 91.1432 40.1758 89.97C39.0405 88.7968 38.4027 87.2057 38.4027 85.5466C38.4027 83.8875 39.0405 82.2963 40.1758 81.1232C41.3111 79.95 42.8509 79.291 44.4564 79.291H67.8902C69.4957 79.291 71.0355 79.95 72.1708 81.1232C73.3061 82.2963 73.9439 83.8875 73.9439 85.5466C73.9439 87.2057 73.3061 88.7968 72.1708 89.97C71.0355 91.1432 69.4957 91.8022 67.8902 91.8022V91.8022ZM44.4564 80.0981C43.058 80.0981 41.7169 80.6722 40.7281 81.694C39.7393 82.7157 39.1838 84.1016 39.1838 85.5466C39.1838 86.9916 39.7393 88.3774 40.7281 89.3992C41.7169 90.421 43.058 90.995 44.4564 90.995H67.8902C69.2886 90.995 70.6297 90.421 71.6185 89.3992C72.6073 88.3774 73.1628 86.9916 73.1628 85.5466C73.1628 84.1016 72.6073 82.7157 71.6185 81.694C70.6297 80.6722 69.2886 80.0981 67.8902 80.0981H44.4564Z" fill="#3F3D56"/>
<path d="M67.8902 112.789H44.4564C42.8509 112.789 41.3111 112.13 40.1758 110.957C39.0405 109.783 38.4027 108.192 38.4027 106.533C38.4027 104.874 39.0405 103.283 40.1758 102.11C41.3111 100.937 42.8509 100.278 44.4564 100.278H67.8902C69.4957 100.278 71.0355 100.937 72.1708 102.11C73.3061 103.283 73.9439 104.874 73.9439 106.533C73.9439 108.192 73.3061 109.783 72.1708 110.957C71.0355 112.13 69.4957 112.789 67.8902 112.789V112.789ZM44.4564 101.085C43.058 101.085 41.7169 101.659 40.7281 102.681C39.7393 103.702 39.1838 105.088 39.1838 106.533C39.1838 107.978 39.7393 109.364 40.7281 110.386C41.7169 111.408 43.058 111.982 44.4564 111.982H67.8902C69.2886 111.982 70.6297 111.408 71.6185 110.386C72.6073 109.364 73.1628 107.978 73.1628 106.533C73.1628 105.088 72.6073 103.702 71.6185 102.681C70.6297 101.659 69.2886 101.085 67.8902 101.085H44.4564Z" fill="#3F3D56"/>
<path d="M71.4052 35.5015H38.598C37.8729 35.5015 37.1775 35.2039 36.6648 34.6741C36.1521 34.1443 35.864 33.4257 35.864 32.6764C35.864 31.9271 36.1521 31.2086 36.6648 30.6788C37.1775 30.1489 37.8729 29.8513 38.598 29.8513H71.4052C72.1303 29.8513 72.8257 30.1489 73.3384 30.6788C73.8511 31.2086 74.1391 31.9271 74.1391 32.6764C74.1391 33.4257 73.8511 34.1443 73.3384 34.6741C72.8257 35.2039 72.1303 35.5015 71.4052 35.5015Z" fill="#282456"/>
<path d="M153.619 34.089C153.078 34.089 152.549 33.9233 152.1 33.6129C151.65 33.3025 151.3 32.8612 151.093 32.345C150.886 31.8288 150.832 31.2607 150.937 30.7127C151.043 30.1647 151.303 29.6613 151.686 29.2662C152.068 28.8711 152.555 28.602 153.085 28.493C153.616 28.384 154.165 28.44 154.665 28.6538C155.164 28.8676 155.591 29.2297 155.892 29.6943C156.192 30.1589 156.353 30.7051 156.353 31.2639C156.352 32.0129 156.064 32.731 155.551 33.2606C155.038 33.7902 154.344 34.0881 153.619 34.089ZM153.619 29.2459C153.232 29.2459 152.855 29.3643 152.534 29.586C152.213 29.8077 151.962 30.1229 151.815 30.4916C151.667 30.8604 151.628 31.2661 151.703 31.6576C151.779 32.049 151.965 32.4086 152.238 32.6908C152.511 32.973 152.859 33.1652 153.238 33.243C153.617 33.3209 154.009 33.2809 154.366 33.1282C154.723 32.9755 155.028 32.7168 155.242 32.385C155.457 32.0531 155.572 31.663 155.572 31.2639C155.571 30.7289 155.365 30.216 154.999 29.8376C154.633 29.4593 154.136 29.2465 153.619 29.2459V29.2459Z" fill="#3F3D56"/>
<path d="M157.848 36.6447C157.797 36.6448 157.746 36.6344 157.698 36.6141C157.651 36.5938 157.608 36.564 157.572 36.5265L154.828 33.6907C154.791 33.6532 154.763 33.6087 154.743 33.5598C154.723 33.5108 154.713 33.4583 154.713 33.4054C154.713 33.3524 154.723 33.2999 154.743 33.2509C154.763 33.202 154.791 33.1575 154.828 33.12C154.864 33.0825 154.907 33.0528 154.954 33.0325C155.002 33.0122 155.053 33.0018 155.104 33.0018C155.155 33.0018 155.206 33.0122 155.253 33.0325C155.301 33.0528 155.344 33.0825 155.38 33.12L158.124 35.9558C158.179 36.0122 158.216 36.0841 158.231 36.1624C158.246 36.2407 158.238 36.3218 158.209 36.3955C158.179 36.4693 158.129 36.5323 158.065 36.5766C158.001 36.621 157.925 36.6447 157.848 36.6447L157.848 36.6447Z" fill="#3F3D56"/>
<path d="M152.056 68.3941H138.777C137.793 68.3941 136.849 67.9901 136.154 67.2711C135.458 66.552 135.067 65.5768 135.067 64.56C135.067 63.5431 135.458 62.5679 136.154 61.8488C136.849 61.1298 137.793 60.7259 138.777 60.7259H152.056C153.04 60.7259 153.984 61.1298 154.68 61.8488C155.376 62.5679 155.767 63.5431 155.767 64.56C155.767 65.5768 155.376 66.552 154.68 67.2711C153.984 67.9901 153.04 68.3941 152.056 68.3941V68.3941Z" fill="#282456"/>
<path d="M152.056 89.3807H138.777C137.793 89.3807 136.849 88.9767 136.154 88.2577C135.458 87.5387 135.067 86.5635 135.067 85.5466C135.067 84.5297 135.458 83.5545 136.154 82.8355C136.849 82.1164 137.793 81.7125 138.777 81.7125H152.056C153.04 81.7125 153.984 82.1164 154.68 82.8355C155.376 83.5545 155.767 84.5297 155.767 85.5466C155.767 86.5635 155.376 87.5387 154.68 88.2577C153.984 88.9767 153.04 89.3807 152.056 89.3807V89.3807Z" fill="#282456"/>
<path d="M152.056 110.367H138.777C137.793 110.367 136.849 109.963 136.154 109.244C135.458 108.525 135.067 107.55 135.067 106.533C135.067 105.516 135.458 104.541 136.154 103.822C136.849 103.103 137.793 102.699 138.777 102.699H152.056C153.04 102.699 153.984 103.103 154.68 103.822C155.376 104.541 155.767 105.516 155.767 106.533C155.767 107.55 155.376 108.525 154.68 109.244C153.984 109.963 153.04 110.367 152.056 110.367V110.367Z" fill="#282456"/>
<path d="M307.609 204H210.75C210.646 204 210.547 203.957 210.474 203.882C210.401 203.806 210.359 203.703 210.359 203.596C210.359 203.489 210.401 203.387 210.474 203.311C210.547 203.235 210.646 203.193 210.75 203.193H307.609C307.713 203.193 307.812 203.235 307.886 203.311C307.959 203.387 308 203.489 308 203.596C308 203.703 307.959 203.806 307.886 203.882C307.812 203.957 307.713 204 307.609 204Z" fill="#3F3D56"/>
</g>
<defs>
<clipPath id="clip0">
<rect width="308" height="204" fill="white"/>
</clipPath>
</defs>
</svg>
