<svg width="228" height="204" viewBox="0 0 228 204" fill="none" xmlns="http://www.w3.org/2000/svg">
<g clip-path="url(#clip0)">
<path d="M45.4275 204C70.5164 204 90.855 202.013 90.855 199.563C90.855 197.113 70.5164 195.126 45.4275 195.126C20.3386 195.126 0 197.113 0 199.563C0 202.013 20.3386 204 45.4275 204Z" fill="#E6E6E6"/>
<path d="M34.7239 45.264C42.6296 40.9397 52.4764 43.6795 62.0928 45.5811C62.1823 43.2783 63.2669 40.4757 62.1307 38.8692C60.7503 36.9174 60.8774 34.8666 61.7081 32.804C63.8322 27.5295 60.7889 21.9173 57.7161 17.2507C57.0235 16.2013 56.1482 15.3767 55.1613 14.844C54.1744 14.3113 53.1037 14.0855 52.0361 14.1849L46.344 14.7078C44.9589 14.835 43.6371 15.5032 42.5553 16.6229C41.4736 17.7427 40.6836 19.2606 40.291 20.9735V20.9735C38.9318 23.3507 38.2044 25.7212 38.6624 28.0795C36.6266 29.8686 36.2845 32.0283 37.1993 34.4629C37.9751 35.9958 37.9668 37.488 37.164 38.9389C36.1098 40.7886 35.3023 42.8512 34.7748 45.0419L34.7239 45.264Z" fill="#2F2E41"/>
<path d="M222.597 176.355H61.4684C60.0355 176.355 58.6613 175.623 57.6481 174.32C56.6349 173.017 56.0657 171.249 56.0657 169.407C114.475 160.677 171.786 160.677 228 169.407C228 171.249 227.431 173.017 226.418 174.32C225.404 175.623 224.03 176.355 222.597 176.355Z" fill="#2F2E41"/>
<path d="M228 169.816L56.0657 169.407L75.9923 126.289L76.0876 126.084V31.0572C76.0875 29.9038 76.2641 28.7616 76.6073 27.696C76.9505 26.6304 77.4536 25.6621 78.0878 24.8465C78.722 24.0309 79.475 23.384 80.3036 22.9426C81.1323 22.5012 82.0204 22.2741 82.9173 22.2742H200.195C201.092 22.2741 201.98 22.5012 202.809 22.9426C203.637 23.384 204.39 24.0309 205.025 24.8465C205.659 25.6621 206.162 26.6304 206.505 27.696C206.848 28.7616 207.025 29.9038 207.025 31.0572V126.738L228 169.816Z" fill="#3F3D56"/>
<path d="M82.7615 28.4048C82.1717 28.4056 81.6062 28.7073 81.1892 29.2436C80.7721 29.78 80.5375 30.5072 80.5369 31.2657V117.91C80.5376 118.669 80.7722 119.396 81.1892 119.932C81.6063 120.469 82.1717 120.77 82.7615 120.771H201.304C201.894 120.77 202.459 120.469 202.876 119.932C203.293 119.396 203.528 118.669 203.529 117.91V31.2657C203.528 30.5072 203.294 29.78 202.876 29.2437C202.459 28.7073 201.894 28.4056 201.304 28.4048H82.7615Z" fill="white"/>
<path d="M83.2583 132.215C83.0761 132.215 82.8977 132.283 82.7442 132.409C82.5907 132.536 82.4686 132.716 82.3921 132.929L76.2521 150.094C76.1853 150.281 76.156 150.486 76.1671 150.691C76.1781 150.897 76.2291 151.095 76.3154 151.268C76.4016 151.441 76.5204 151.584 76.6607 151.682C76.8009 151.781 76.9583 151.833 77.1182 151.833H206.239C206.402 151.833 206.562 151.779 206.703 151.677C206.845 151.576 206.965 151.429 207.05 151.251C207.136 151.073 207.184 150.87 207.192 150.662C207.199 150.453 207.164 150.245 207.092 150.058L200.418 132.893C200.339 132.689 200.217 132.517 200.067 132.397C199.916 132.277 199.742 132.214 199.565 132.215H83.2583Z" fill="#2F2E41"/>
<path d="M141.556 26.9743C142.346 26.9743 142.986 26.1509 142.986 25.1351C142.986 24.1194 142.346 23.296 141.556 23.296C140.766 23.296 140.126 24.1194 140.126 25.1351C140.126 26.1509 140.766 26.9743 141.556 26.9743Z" fill="white"/>
<path d="M128.864 155.102C128.655 155.103 128.451 155.192 128.285 155.356C128.118 155.519 127.999 155.749 127.944 156.009L126.404 163.366C126.366 163.548 126.361 163.738 126.389 163.923C126.417 164.108 126.478 164.281 126.567 164.431C126.656 164.58 126.771 164.701 126.902 164.784C127.033 164.868 127.178 164.911 127.324 164.911H156.615C156.767 164.911 156.916 164.864 157.051 164.775C157.187 164.685 157.303 164.555 157.391 164.396C157.479 164.237 157.537 164.053 157.558 163.859C157.58 163.666 157.565 163.469 157.515 163.284L155.535 155.927C155.47 155.686 155.349 155.478 155.187 155.33C155.026 155.182 154.832 155.102 154.634 155.102H128.864Z" fill="#2F2E41"/>
<path d="M207.025 124.654V126.289H75.9922L76.0908 126.085V124.654H207.025Z" fill="#2F2E41"/>
<path d="M203.37 57.2182C215.656 57.2182 225.616 44.4095 225.616 28.6091C225.616 12.8087 215.656 0 203.37 0C191.083 0 181.123 12.8087 181.123 28.6091C181.123 44.4095 191.083 57.2182 203.37 57.2182Z" fill="#282456"/>
<path d="M212.586 41.0745H194.153C193.816 41.0741 193.493 40.9017 193.255 40.5952C193.016 40.2887 192.882 39.8731 192.882 39.4397V25.1351C192.882 24.7017 193.016 24.2862 193.255 23.9797C193.493 23.6732 193.816 23.5008 194.153 23.5003H212.586C212.923 23.5008 213.246 23.6732 213.485 23.9797C213.723 24.2862 213.857 24.7017 213.857 25.1351V39.4397C213.857 39.8731 213.723 40.2887 213.485 40.5952C213.246 40.9017 212.923 41.0741 212.586 41.0745ZM194.153 25.1351V39.4397H212.587L212.586 25.1351L194.153 25.1351Z" fill="white"/>
<path d="M209.09 25.1351H197.649V18.5959C197.649 13.8595 200.055 10.4219 203.37 10.4219C206.684 10.4219 209.09 13.8595 209.09 18.5959L209.09 25.1351ZM198.92 23.5003H207.819V18.5959C207.819 14.7458 205.989 12.0567 203.37 12.0567C200.75 12.0567 198.92 14.7458 198.92 18.5959L198.92 23.5003Z" fill="white"/>
<path d="M203.37 33.5135C204.072 33.5135 204.641 32.7816 204.641 31.8787C204.641 30.9758 204.072 30.2439 203.37 30.2439C202.668 30.2439 202.099 30.9758 202.099 31.8787C202.099 32.7816 202.668 33.5135 203.37 33.5135Z" fill="white"/>
<path d="M187.84 91.3823H96.2258C95.776 91.3816 95.3448 91.1515 95.0268 90.7425C94.7087 90.3335 94.5298 89.779 94.5293 89.2005V59.9755C94.5298 59.3971 94.7087 58.8426 95.0268 58.4335C95.3448 58.0245 95.776 57.7944 96.2258 57.7938H187.84C188.29 57.7944 188.721 58.0245 189.039 58.4335C189.357 58.8426 189.536 59.3971 189.536 59.9755V89.2005C189.536 89.779 189.357 90.3335 189.039 90.7425C188.721 91.1515 188.29 91.3816 187.84 91.3823V91.3823ZM96.2258 58.6665C95.956 58.6669 95.6972 58.8049 95.5064 59.0503C95.3155 59.2957 95.2082 59.6285 95.2079 59.9755V89.2005C95.2082 89.5476 95.3155 89.8804 95.5064 90.1258C95.6972 90.3712 95.956 90.5092 96.2258 90.5096H187.84C188.11 90.5092 188.368 90.3712 188.559 90.1258C188.75 89.8804 188.857 89.5476 188.858 89.2005V59.9755C188.857 59.6285 188.75 59.2957 188.559 59.0503C188.368 58.8049 188.11 58.6668 187.84 58.6665L96.2258 58.6665Z" fill="#E6E6E6"/>
<path d="M110.461 82.3541C114.277 82.3541 117.372 78.3751 117.372 73.4667C117.372 68.5584 114.277 64.5793 110.461 64.5793C106.644 64.5793 103.55 68.5584 103.55 73.4667C103.55 78.3751 106.644 82.3541 110.461 82.3541Z" fill="#E6E6E6"/>
<path d="M126.421 67.5417C126.27 67.5414 126.12 67.5795 125.98 67.6538C125.84 67.7281 125.713 67.8372 125.606 67.9748C125.499 68.1123 125.414 68.2757 125.356 68.4556C125.298 68.6355 125.268 68.8283 125.268 69.023C125.268 69.2177 125.298 69.4105 125.356 69.5904C125.414 69.7702 125.499 69.9336 125.606 70.0712C125.713 70.2088 125.84 70.3178 125.98 70.3921C126.12 70.4664 126.27 70.5045 126.421 70.5042H180.721C181.026 70.5042 181.319 70.3481 181.535 70.0704C181.751 69.7926 181.873 69.4158 181.873 69.023C181.873 68.6301 181.751 68.2534 181.535 67.9756C181.319 67.6978 181.026 67.5417 180.721 67.5417H126.421Z" fill="#E6E6E6"/>
<path d="M126.422 76.4291C126.116 76.4291 125.823 76.5852 125.607 76.863C125.391 77.1408 125.27 77.5175 125.27 77.9104C125.27 78.3032 125.391 78.68 125.607 78.9578C125.823 79.2355 126.116 79.3916 126.422 79.3916H149.787C150.092 79.3916 150.385 79.2355 150.601 78.9578C150.817 78.68 150.939 78.3032 150.939 77.9104C150.939 77.5175 150.817 77.1408 150.601 76.863C150.385 76.5852 150.092 76.4291 149.787 76.4291H126.422Z" fill="#E6E6E6"/>
<path d="M75.7666 77.0283L58.8311 88.6071L58.6167 78.9581C64.1443 77.7714 69.4033 75.7053 74.266 72.3417L76.0373 66.7141C76.2303 66.1009 76.5439 65.5628 76.9475 65.1526C77.3511 64.7424 77.8307 64.4741 78.3392 64.3743C78.8477 64.2744 79.3677 64.3463 79.8481 64.583C80.3285 64.8196 80.7527 65.2128 81.0793 65.724V65.724C81.557 66.4719 81.7958 67.4254 81.7473 68.3912C81.6988 69.3571 81.3666 70.2632 80.8181 70.9259L75.7666 77.0283Z" fill="#FFB8B8"/>
<path d="M34.3865 143.88C34.2629 143.297 34.2367 142.688 34.3095 142.091C34.3823 141.494 34.5525 140.924 34.8089 140.418L38.5292 133.076C39.4091 131.339 40.7593 130.085 42.3178 129.556C43.8762 129.027 45.5319 129.262 46.9634 130.214V130.214C45.3999 133.637 45.6179 136.639 47.5034 139.248C44.5764 141.086 41.8711 143.458 39.4714 146.29C39.0333 146.674 38.5302 146.918 38.004 147.001C37.4777 147.085 36.9436 147.005 36.4461 146.77C35.9487 146.534 35.5022 146.148 35.1439 145.646C34.7857 145.143 34.526 144.538 34.3865 143.88V143.88Z" fill="#2F2E41"/>
<path d="M76.5381 134.28C75.9752 135.486 75.1805 136.487 74.2304 137.185C73.2803 137.882 72.2066 138.255 71.1125 138.265L46.3975 138.506L45.3257 130.511L56.2588 126.376L47.0407 117.278L57.1162 102.116L75.4166 124.051C76.4862 125.333 77.1812 127.048 77.3853 128.91C77.5895 130.772 77.2904 132.667 76.5381 134.28V134.28Z" fill="#2F2E41"/>
<path d="M42.5387 188.956H36.7506C31.5537 143.146 26.2638 97.2072 41.8955 80.0609L60.3317 83.9205L57.9736 104.045L47.6836 119.208L42.5387 188.956Z" fill="#2F2E41"/>
<path d="M47.6267 199.334C47.1735 199.493 46.6994 199.527 46.2354 199.433C45.7714 199.339 45.3281 199.12 44.9346 198.791L38.6499 197.704C37.2995 196.573 36.324 194.837 35.9127 192.833C35.5015 190.828 35.6838 188.699 36.4243 186.858C39.0857 188.869 41.4204 188.588 43.4493 186.163C44.8828 189.886 47.2448 189.659 49.5005 192.795C49.7992 193.358 49.9889 194.005 50.0537 194.682C50.1186 195.358 50.0568 196.045 49.8735 196.685C49.6902 197.325 49.3906 197.899 48.9998 198.36C48.609 198.82 48.1382 199.154 47.6267 199.334V199.334Z" fill="#2F2E41"/>
<path d="M56.2588 49.4598L45.54 46.1516C47.3202 41.4655 47.4668 36.2512 46.6119 30.7132L53.9006 30.4375C54.129 37.3242 54.8199 43.7581 56.2588 49.4598Z" fill="#FFB8B8"/>
<path d="M59.2046 92.2212C51.4017 99.0589 45.8885 92.4551 41.6812 82.2663C42.2659 76.0317 41.3193 68.5708 39.5661 60.4638C38.7864 56.8881 39.0775 53.0664 40.3819 49.7532C41.6863 46.44 43.9092 43.8761 46.6118 42.5677V42.5677L55.8299 47.53C63.6572 55.7348 65.1978 64.6222 62.2612 73.9958L59.2046 92.2212Z" fill="#282456"/>
<path d="M36.7506 56.3519L28.1756 62.1413L43.3962 73.7201L45.5141 80.4382C45.6554 80.8866 45.7243 81.3673 45.7164 81.851C45.7086 82.3348 45.6243 82.8114 45.4685 83.2518C45.3128 83.6923 45.0889 84.0873 44.8106 84.4129C44.5322 84.7384 44.2052 84.9876 43.8496 85.1454V85.1454C43.4452 85.3247 43.0141 85.3812 42.59 85.3104C42.1659 85.2397 41.7602 85.0436 41.4048 84.7376C41.0495 84.4316 40.754 84.024 40.5416 83.5466C40.3291 83.0693 40.2055 82.5352 40.1804 81.9861L39.9662 77.304L20.6211 69.0943C19.9693 68.8177 19.375 68.354 18.8832 67.7383C18.3914 67.1225 18.015 66.371 17.7825 65.5405V65.5405C17.4437 64.33 17.4264 63.0091 17.7335 61.7846C18.0406 60.5601 18.6546 59.5011 19.4796 58.7732L35.0356 45.0489L36.7506 56.3519Z" fill="#FFB8B8"/>
<path d="M45.3257 57.4547C41.7494 55.4392 38.4974 57.6286 34.3926 59.3845L33.7495 44.7732C37.8254 41.9795 41.7114 41.2263 45.3257 43.3948L45.3257 57.4547Z" fill="#282456"/>
<path d="M49.6037 37.675C53.3833 37.675 56.4472 33.7348 56.4472 28.8743C56.4472 24.0138 53.3833 20.0736 49.6037 20.0736C45.8242 20.0736 42.7603 24.0138 42.7603 28.8743C42.7603 33.7348 45.8242 37.675 49.6037 37.675Z" fill="#FFB8B8"/>
<path d="M57.7908 27.7639C51.0152 28.6173 45.8522 27.1923 42.5525 23.1347V19.867H57.2158L57.7908 27.7639Z" fill="#2F2E41"/>
</g>
<defs>
<clipPath id="clip0">
<rect width="228" height="204" fill="white"/>
</clipPath>
</defs>
</svg>
