<svg width="337" height="234" viewBox="0 0 337 234" fill="none" xmlns="http://www.w3.org/2000/svg">
<g clip-path="url(#clip0)">
<path opacity="0.2" d="M49.248 0.0266868C46.6262 -0.0612544 43.9393 0.0266838 41.4801 0.913743C34.7889 3.33021 31.6173 11.2373 32.6485 18.0699C33.6797 24.9026 37.9214 30.8558 42.3226 36.2967C46.7238 41.7376 51.4925 47.1173 53.9062 53.6211C55.1097 56.8673 55.6725 60.5034 54.4494 63.7458C52.5627 68.7432 46.8734 71.5343 41.4118 72.1155C35.9502 72.6967 30.4658 71.5649 24.9847 71.1864C22.6849 71.0296 20.32 71.0105 18.1536 71.7408C15.7757 72.5361 13.7947 74.1611 11.9731 75.8549C4.86551 82.5002 -0.823804 91.5658 0.0967654 101.09C1.13769 111.884 10.4215 120.414 20.59 124.991C23.9568 126.521 27.5187 127.736 30.4821 129.901C38.289 135.609 40.0423 146.315 39.2649 155.763C38.4874 165.211 35.8396 174.67 37.3131 184.034C39.0469 194.927 46.7205 204.769 57.0712 209.365C66.2932 213.46 77.8345 213.188 86.022 207.411C90.0133 204.589 93.032 200.67 95.6571 196.617C99.5549 190.632 102.775 184.077 105.237 177.117C106.379 173.871 107.452 170.38 110.116 168.124C111.743 166.736 113.851 165.96 115.936 165.356C122.22 163.536 128.84 163.039 135.183 161.418C141.526 159.797 147.908 156.765 151.356 151.373C156.236 143.726 153.959 133.931 153.982 124.938C154.021 104.421 166.704 86.0561 171.384 66.0552C172.913 59.5208 173.483 52.2905 170.067 46.4596C167.748 42.5023 163.835 39.6461 159.723 37.4399C150.677 32.5879 140.394 30.4276 130.281 28.3246C116.225 25.4034 99.1572 25.0249 88.2632 15.5732C77.8084 6.49992 63.5055 0.0266868 49.248 0.0266868Z" fill="#282456"/>
<path d="M185.74 234C269.279 234 337 212.684 337 186.389C337 160.095 269.279 138.779 185.74 138.779C102.202 138.779 34.4807 160.095 34.4807 186.389C34.4807 212.684 102.202 234 185.74 234Z" fill="#F5F5F5"/>
<path d="M311.361 71.4465C311.361 71.4465 299.706 85.1462 306.286 105.476C312.867 125.806 295.005 159.613 295.005 159.613C295.005 159.613 295.197 159.579 295.552 159.506C319.49 154.536 331.385 122.357 318.075 98.4482C313.127 89.5624 309.064 79.1471 311.361 71.4465Z" fill="#282456"/>
<path d="M311.361 71.4465C311.361 71.4465 304.78 88.2394 311.361 101.939C317.941 115.639 312.489 154.088 295.005 159.613" stroke="#535461" stroke-width="2" stroke-miterlimit="10"/>
<path d="M332.121 126.861C332.121 126.861 318.819 124.372 317.609 138.381C316.399 152.391 292.035 154.333 292.035 154.333L292.491 154.689C312.606 170.208 331.851 164.576 328.923 143.983C327.859 136.305 327.947 128.608 332.121 126.861Z" fill="#282456"/>
<path opacity="0.2" d="M332.121 126.861C332.121 126.861 318.819 124.372 317.609 138.381C316.399 152.391 292.035 154.333 292.035 154.333L292.491 154.689C312.606 170.208 331.851 164.576 328.923 143.983C327.859 136.305 327.947 128.608 332.121 126.861Z" fill="#F5F5F5"/>
<path d="M332.121 126.861C332.121 126.861 321.796 129.537 322.645 140.557C323.494 151.576 307.314 164.817 292.035 154.321" stroke="#535461" stroke-width="2" stroke-miterlimit="10"/>
<path d="M301.338 160.558H280.442C280.923 159.421 281.172 158.168 281.17 156.898V45.0373C281.17 42.8561 280.433 40.7642 279.121 39.2218C277.809 37.6794 276.029 36.8129 274.173 36.8129H112.394C111.475 36.8124 110.565 37.0248 109.715 37.4379C108.866 37.851 108.094 38.4567 107.444 39.2205C106.794 39.9842 106.278 40.891 105.927 41.8891C105.575 42.8872 105.394 43.957 105.394 45.0373V156.902C105.392 158.172 105.641 159.425 106.122 160.561H84.4874C83.9965 160.561 83.5257 160.791 83.1786 161.199C82.8315 161.607 82.6365 162.16 82.6365 162.737V164.492C82.6391 167.717 83.7307 170.808 85.6716 173.088C87.6124 175.367 90.2437 176.647 92.9872 176.647H292.839C295.584 176.647 298.216 175.365 300.158 173.084C302.099 170.802 303.189 167.707 303.189 164.481V162.726C303.188 162.15 302.992 161.598 302.645 161.192C302.298 160.786 301.828 160.558 301.338 160.558ZM172.56 167.516L170.777 165.127H215.251L213.266 167.52L172.56 167.516Z" fill="url(#paint0_linear)"/>
<path d="M271.607 38.3959H114.948C110.769 38.3959 107.381 42.3776 107.381 47.2894V154.91C107.381 159.822 110.769 163.804 114.948 163.804H271.607C275.786 163.804 279.173 159.822 279.173 154.91V47.2894C279.173 42.3776 275.786 38.3959 271.607 38.3959Z" fill="#535461"/>
<path d="M275.192 56.6762H110.995V159.128H275.192V56.6762Z" fill="white"/>
<path d="M193.095 49.4497C193.895 49.4497 194.543 48.688 194.543 47.7483C194.543 46.8086 193.895 46.0468 193.095 46.0468C192.296 46.0468 191.648 46.8086 191.648 47.7483C191.648 48.688 192.296 49.4497 193.095 49.4497Z" fill="white"/>
<path d="M218.448 159.338L212.805 166.14H173.022L167.924 159.338H86.9468C86.4671 159.338 86.0071 159.562 85.6679 159.961C85.3287 160.359 85.1382 160.9 85.1382 161.464V163.177C85.1382 166.331 86.204 169.355 88.1012 171.585C89.9985 173.815 92.5716 175.068 95.2547 175.068H290.575C293.258 175.068 295.831 173.815 297.728 171.585C299.625 169.355 300.691 166.331 300.691 163.177V161.464C300.691 160.9 300.501 160.359 300.162 159.961C299.822 159.562 299.362 159.338 298.883 159.338H218.448Z" fill="#535461"/>
<path d="M162.128 60.2779H92.8636C91.181 60.2759 89.5666 61.0594 88.3753 62.4561C87.184 63.8528 86.5133 65.7484 86.5107 67.7262V180.52C86.5133 182.498 87.184 184.394 88.3753 185.79C89.5666 187.187 91.181 187.971 92.8636 187.969H162.128C163.81 187.971 165.425 187.187 166.616 185.79C167.807 184.394 168.478 182.498 168.48 180.52V67.7262C168.478 65.7484 167.807 63.8528 166.616 62.4561C165.425 61.0594 163.81 60.2759 162.128 60.2779Z" fill="url(#paint1_linear)"/>
<path d="M160.999 61.8073H93.9892C90.3961 61.8073 87.4834 65.231 87.4834 69.4544V179.19C87.4834 183.413 90.3961 186.837 93.9892 186.837H160.999C164.592 186.837 167.505 183.413 167.505 179.19V69.4544C167.505 65.231 164.592 61.8073 160.999 61.8073Z" fill="#535461"/>
<path d="M163.439 73.6335H91.5496V175.011H163.439V73.6335Z" fill="white"/>
<path d="M127.169 68.6897C127.708 68.6897 128.145 68.1761 128.145 67.5426C128.145 66.9091 127.708 66.3956 127.169 66.3956C126.63 66.3956 126.193 66.9091 126.193 67.5426C126.193 68.1761 126.63 68.6897 127.169 68.6897Z" fill="white"/>
<path d="M127.169 184.16C128.786 184.16 130.096 182.62 130.096 180.719C130.096 178.819 128.786 177.278 127.169 177.278C125.552 177.278 124.241 178.819 124.241 180.719C124.241 182.62 125.552 184.16 127.169 184.16Z" fill="white"/>
<path d="M109.333 98.5132H73.7692C73.3074 98.5122 72.85 98.6181 72.4231 98.8249C71.9961 99.0317 71.608 99.3353 71.2809 99.7184C70.9537 100.102 70.694 100.557 70.5165 101.058C70.339 101.559 70.2472 102.096 70.2463 102.639V194.182C70.2472 194.725 70.339 195.262 70.5165 195.763C70.694 196.264 70.9537 196.719 71.2809 197.102C71.608 197.485 71.9961 197.789 72.4231 197.996C72.85 198.202 73.3074 198.308 73.7692 198.307H109.333C109.795 198.308 110.252 198.202 110.679 197.996C111.106 197.789 111.494 197.485 111.821 197.102C112.149 196.719 112.408 196.264 112.586 195.763C112.763 195.262 112.855 194.725 112.856 194.182V102.639C112.855 102.096 112.763 101.559 112.586 101.058C112.408 100.557 112.149 100.102 111.821 99.7184C111.494 99.3353 111.106 99.0317 110.679 98.8249C110.252 98.6181 109.795 98.5122 109.333 98.5132V98.5132Z" fill="url(#paint2_linear)"/>
<path d="M108.953 99.2779H74.1465C72.1704 99.2779 70.5684 101.161 70.5684 103.484V193.719C70.5684 196.042 72.1704 197.925 74.1465 197.925H108.953C110.929 197.925 112.531 196.042 112.531 193.719V103.484C112.531 101.161 110.929 99.2779 108.953 99.2779Z" fill="#535461"/>
<path d="M109.441 108.454H73.6587V188.749H109.441V108.454Z" fill="white"/>
<path d="M87.3209 104.249C87.5006 104.249 87.6462 104.077 87.6462 103.866C87.6462 103.655 87.5006 103.484 87.3209 103.484C87.1412 103.484 86.9956 103.655 86.9956 103.866C86.9956 104.077 87.1412 104.249 87.3209 104.249Z" fill="white"/>
<path d="M95.7783 103.484H89.2726C89.0929 103.484 88.9473 103.655 88.9473 103.866C88.9473 104.077 89.0929 104.249 89.2726 104.249H95.7783C95.958 104.249 96.1036 104.077 96.1036 103.866C96.1036 103.655 95.958 103.484 95.7783 103.484Z" fill="white"/>
<path d="M91.3869 195.249C92.6445 195.249 93.6639 194.05 93.6639 192.572C93.6639 191.094 92.6445 189.896 91.3869 189.896C90.1293 189.896 89.1099 191.094 89.1099 192.572C89.1099 194.05 90.1293 195.249 91.3869 195.249Z" fill="white"/>
<path d="M66.2713 205.037C66.2713 205.037 61.958 187.831 67.0813 175.16C69.2622 169.863 69.9219 163.878 68.9615 158.103C68.4866 155.367 67.7995 152.689 66.9089 150.1" stroke="#535461" stroke-width="2" stroke-miterlimit="10"/>
<path d="M70.0837 142.094C70.0837 144.204 66.8308 150.318 66.8308 150.318C66.8308 150.318 63.5779 144.201 63.5779 142.094C63.5779 141.08 63.9206 140.107 64.5306 139.39C65.1407 138.673 65.9681 138.27 66.8308 138.27C67.6935 138.27 68.5209 138.673 69.1309 139.39C69.7409 140.107 70.0837 141.08 70.0837 142.094Z" fill="#282456"/>
<path d="M75.4673 153.779C74.4915 155.549 68.9355 158.608 68.9355 158.608C68.9355 158.608 69.0364 151.397 70.0123 149.626C70.2342 149.18 70.5307 148.792 70.884 148.484C71.2373 148.176 71.6399 147.956 72.0676 147.837C72.4954 147.717 72.9392 147.701 73.3725 147.788C73.8057 147.876 74.2194 148.066 74.5884 148.347C74.9574 148.628 75.2741 148.994 75.5195 149.423C75.7648 149.851 75.9337 150.334 76.0158 150.842C76.098 151.35 76.0917 151.872 75.9975 152.376C75.9032 152.881 75.7229 153.358 75.4673 153.779V153.779Z" fill="#282456"/>
<path d="M75.2199 173.741C73.6163 174.689 67.5073 174.036 67.5073 174.036C67.5073 174.036 70.6919 167.872 72.2923 166.924C73.0565 166.518 73.9246 166.475 74.7153 166.803C75.506 167.131 76.1582 167.806 76.5359 168.686C76.9136 169.566 76.9876 170.584 76.7424 171.526C76.4972 172.469 75.9518 173.264 75.2199 173.745V173.741Z" fill="#282456"/>
<path d="M72.1491 188.802C70.7048 190.056 64.5894 190.622 64.5894 190.622C64.5894 190.622 66.8404 183.916 68.2847 182.661C68.9796 182.116 69.8262 181.907 70.6492 182.075C71.4722 182.244 72.2083 182.779 72.7051 183.568C73.2019 184.358 73.4213 185.341 73.3178 186.316C73.2143 187.29 72.7958 188.18 72.1491 188.802V188.802Z" fill="#282456"/>
<path d="M62.1011 159.017C63.4022 160.485 69.3843 162.011 69.3843 162.011C69.3843 162.011 67.9172 155.01 66.6291 153.541C66.3282 153.164 65.9653 152.862 65.5623 152.654C65.1594 152.447 64.7247 152.337 64.2847 152.332C63.8446 152.328 63.4083 152.428 63.0022 152.627C62.5962 152.827 62.2287 153.121 61.9221 153.492C61.6154 153.863 61.3761 154.303 61.2184 154.786C61.0607 155.269 60.9881 155.784 61.0048 156.301C61.0215 156.818 61.1273 157.326 61.3157 157.793C61.5042 158.26 61.7713 158.678 62.1011 159.021V159.017Z" fill="#282456"/>
<path d="M58.6984 176.681C60.3021 177.63 66.4111 176.976 66.4111 176.976C66.4111 176.976 63.2265 170.812 61.6261 169.864C61.243 169.612 60.8206 169.454 60.3842 169.399C59.9477 169.344 59.5064 169.394 59.0866 169.544C58.6669 169.695 58.2775 169.944 57.9418 170.277C57.6062 170.609 57.3313 171.018 57.1336 171.479C56.9359 171.939 56.8195 172.442 56.7915 172.957C56.7635 173.472 56.8245 173.988 56.9707 174.475C57.1169 174.961 57.3453 175.408 57.6423 175.788C57.9392 176.167 58.2985 176.473 58.6984 176.685V176.681Z" fill="#282456"/>
<path d="M57.3974 194.384C58.8417 195.639 64.9571 196.204 64.9571 196.204C64.9571 196.204 62.7061 189.498 61.2618 188.244C60.5669 187.699 59.7202 187.489 58.8973 187.658C58.0743 187.827 57.3382 188.361 56.8414 189.151C56.3446 189.94 56.1252 190.924 56.2287 191.898C56.3322 192.873 56.7507 193.763 57.3974 194.384Z" fill="#282456"/>
<path d="M323.663 150.303C320.062 145.168 315.7 139.268 316.312 132.436C316.806 126.903 315.622 121.787 315.856 116.235C316.182 108.347 314.835 102.172 310.001 97.1177C307.178 94.1621 302.458 91.8412 301.052 92.4338C298.268 93.6038 295.23 93.1565 292.364 93.9633C290.188 94.5597 288.74 95.4927 287.842 96.6397C286.037 98.5515 286.008 101.228 286.831 104.076C286.112 105.623 285.679 107.329 285.558 109.085C285.438 110.841 285.633 112.607 286.131 114.269C286.628 115.93 287.418 117.45 288.448 118.73C289.478 120.009 290.726 121.02 292.11 121.695C290.103 122.682 288.369 124.953 287.693 129.564C287.222 132.731 286.511 135.842 285.569 138.859C285.145 139.092 284.71 139.298 284.267 139.475C284.365 139.521 284.466 139.551 284.563 139.593C284.352 139.689 284.144 139.784 283.913 139.869C284.297 140.045 284.695 140.181 285.1 140.274C282.498 148.001 279.245 152.788 279.245 152.788C279.245 152.788 273.178 154.364 270.82 151.607C270.82 151.607 271.204 152.134 271.724 152.926C269.418 151.802 265.632 149.967 262.395 148.456C260.046 147.359 259.445 148.456 259.467 149.986C258.894 150.07 258.341 150.289 257.841 150.628C257.147 150.103 256.42 149.643 255.665 149.251C254.318 148.869 249.936 146.101 245.555 155.549C243.004 161.043 236.466 171.072 231.44 178.49C221.665 183.774 208.94 190.465 204.21 192.148H201.179C200.782 191.383 200.505 190.901 200.505 190.901L200.271 191.085L200.17 190.901C200.17 190.901 194.217 195.746 188.174 195.784C187.314 195.77 186.458 195.642 185.623 195.401C182.845 194.579 180.887 194.212 179.488 194.254C177.833 194.22 176.886 194.683 176.314 195.554C176.237 195.669 176.166 195.789 176.102 195.914V195.914C176.038 196.038 175.979 196.165 175.926 196.296V196.296C175.874 196.434 175.822 196.579 175.777 196.728C175.758 196.861 175.765 196.997 175.798 197.127C175.831 197.256 175.888 197.375 175.965 197.474C176.047 197.608 176.135 197.735 176.229 197.856L176.398 198.07C177.159 198.996 178.545 200.223 180.269 201.592C180.767 201.974 181.294 202.395 181.843 202.811L182.888 203.576L183.821 204.261L184.195 204.532L184.612 204.83L185.357 205.362L185.799 205.675L186.635 206.26L187.312 206.731C189.081 207.958 190.844 209.147 192.435 210.202L193.547 210.982L193.655 211.051L194.37 211.521L195.606 212.328L196.455 212.879L196.852 213.135L197.278 213.41L197.363 213.464L198.105 213.938C198.257 213.968 198.414 213.959 198.563 213.912C198.712 213.864 198.851 213.779 198.97 213.663C199.185 212.592 199.708 210.298 200.271 210.122C200.834 209.946 203.27 204.941 203.957 201.592H210.534C211.83 201.462 213.116 201.229 214.385 200.896C212.687 202.318 211.006 203.213 209.698 202.831C206.933 202.024 204.314 204.004 204.051 205.958C204.051 206 204.028 206.039 204.018 206.081C204.009 206.123 204.002 206.161 203.996 206.199C203.989 206.237 203.976 206.295 203.97 206.344C203.963 206.394 203.97 206.425 203.97 206.467C203.97 206.509 203.97 206.562 203.97 206.612C203.97 206.662 203.97 206.692 203.97 206.731C203.97 206.769 203.97 206.83 203.97 206.88C203.97 206.929 203.97 206.956 203.97 206.994C203.97 207.033 203.989 207.098 204.002 207.151C204.015 207.205 204.002 207.22 204.025 207.251C204.046 207.32 204.069 207.387 204.097 207.453L204.113 207.503C204.149 207.586 204.191 207.667 204.236 207.744L204.288 207.824C204.321 207.878 204.357 207.931 204.396 207.981L204.471 208.069C204.51 208.115 204.552 208.161 204.594 208.206L204.685 208.294L204.832 208.421L204.939 208.505L205.115 208.627L205.232 208.7L205.453 208.822L205.564 208.879C205.681 208.937 205.804 208.99 205.938 209.04C206.149 209.12 206.4 209.204 206.683 209.289L206.966 209.369L207.379 209.48L207.597 209.537C207.879 209.608 208.178 209.68 208.494 209.751L208.934 209.847L209.291 209.923L210.114 210.091C210.628 210.195 211.165 210.298 211.741 210.397L213.159 210.65L215.007 210.959L215.417 211.024L216.067 211.131L217.02 211.281L217.671 211.38L219.359 211.632L219.886 211.709L220.95 211.862C222.349 212.061 223.702 212.244 224.948 212.409L226.389 212.6L227.117 212.695L227.443 212.734L228.314 212.844L228.799 212.906L229.398 212.978L230.24 213.081H230.331L230.871 213.146C230.939 213.155 231.007 213.147 231.072 213.123C231.137 213.098 231.197 213.059 231.248 213.006C231.299 212.953 231.34 212.888 231.369 212.816C231.397 212.743 231.413 212.664 231.414 212.584C231.414 212.565 231.414 212.542 231.414 212.519C231.464 212.431 231.491 212.327 231.492 212.221C231.507 211.278 231.608 210.34 231.795 209.422C231.831 209.266 231.873 209.105 231.919 208.944L231.971 208.761C232.029 208.566 232.088 208.379 232.156 208.168C232.205 208.026 232.247 207.88 232.283 207.732C232.283 207.686 232.306 207.641 232.319 207.591C232.332 207.541 232.351 207.434 232.364 207.354C233.041 204.635 232.224 199.565 231.99 197.573C231.915 196.937 231.791 196.31 231.619 195.7C231.661 195.705 231.704 195.705 231.746 195.7C232.095 195.549 232.424 195.339 232.722 195.076C237.692 192.993 241.882 190.611 243.206 188.225C245.35 187.559 247.627 187.84 249.608 189.012C252.181 190.515 271.646 197.982 280.709 201.431C282.335 203.079 283.61 204.043 284.316 203.97C284.316 203.97 295.854 206.165 300.493 201.882C300.906 202.219 301.166 202.399 301.166 202.399C301.166 202.399 307.906 198.464 308.918 193.344C309.243 191.685 309.539 189.238 309.842 186.531C311.405 184.679 312.284 182.177 312.288 179.568C312.499 170.973 315.333 161.154 317.434 152.421C319.984 152.658 320.97 152.092 323.309 150.735L323.205 150.578C323.37 150.464 323.517 150.387 323.663 150.303ZM285.022 163.177L283.721 162.668C284.157 161.983 284.533 161.248 284.843 160.474L285.022 163.177ZM277.771 166.794L285.578 172.3L285.647 173.42C285.551 174.273 285.573 175.137 285.712 175.982C282.27 172.388 278.243 168.025 277.768 166.79L277.771 166.794ZM274.584 158.764C273.731 158.351 273.025 157.977 272.541 157.667C273.191 157.721 273.809 157.767 274.349 157.801C274.456 158.112 274.535 158.434 274.584 158.764V158.764ZM253.674 167.738C253.674 167.738 255.021 164.198 258.056 170.101C258.527 171.019 259.396 172.479 260.544 174.288L251.709 172.9C252.75 171.004 253.449 169.241 253.674 167.742V167.738Z" fill="url(#paint3_linear)"/>
<path d="M273.081 153.515C273.081 153.515 266.9 150.456 262.021 148.162C257.141 145.868 260.069 153.515 260.069 153.515C260.069 153.515 268.201 156.191 268.201 156.573C268.201 156.956 275.032 157.338 275.032 157.338L273.081 153.515Z" fill="#F7C4A7"/>
<path opacity="0.05" d="M273.081 153.515C273.081 153.515 266.9 150.456 262.021 148.162C257.141 145.868 260.069 153.515 260.069 153.515C260.069 153.515 268.201 156.191 268.201 156.573C268.201 156.956 275.032 157.338 275.032 157.338L273.081 153.515Z" fill="black"/>
<path d="M299.429 123.309C299.429 123.309 288.369 116.427 286.418 129.809C284.466 143.191 278.285 152.368 278.285 152.368C278.285 152.368 272.43 153.897 270.153 151.221C270.153 151.221 275.683 158.868 273.081 159.632C273.081 159.632 278.936 164.603 281.538 163.074C284.141 161.544 286.092 151.221 287.068 148.544C288.044 145.868 291.622 122.544 299.429 123.309Z" fill="#575988"/>
<path opacity="0.1" d="M299.429 123.309C299.429 123.309 288.369 116.427 286.418 129.809C284.466 143.191 278.285 152.368 278.285 152.368C278.285 152.368 272.43 153.897 270.153 151.221C270.153 151.221 275.683 158.868 273.081 159.632C273.081 159.632 278.936 164.603 281.538 163.074C284.141 161.544 286.092 151.221 287.068 148.544C288.044 145.868 291.622 122.544 299.429 123.309Z" fill="black"/>
<path d="M293.249 118.721C293.249 118.721 300.08 127.897 300.405 135.544C300.73 143.191 308.212 127.515 308.862 127.132C309.513 126.75 302.357 113.75 301.706 109.544C301.055 105.338 293.249 118.721 293.249 118.721Z" fill="#F7C4A7"/>
<path d="M297.965 122.64L293.655 127.228L295.688 136.882L301.218 130.765L300.568 124.647L297.965 122.64Z" fill="#F7C4A7"/>
<path d="M208.023 190.603H200.541L203.469 199.015L210.625 196.721L208.023 190.603Z" fill="#F7C4A7"/>
<path opacity="0.1" d="M202.272 189.391C202.272 189.391 194.523 195.734 187.904 193.761C181.284 191.788 179.485 192.526 178.714 195.073C178.002 197.416 197.204 209.812 200.265 211.77C200.312 211.801 200.365 211.818 200.419 211.82C200.473 211.823 200.527 211.811 200.576 211.785C200.626 211.759 200.669 211.72 200.704 211.671C200.738 211.622 200.763 211.564 200.775 211.502C200.983 210.462 201.488 208.233 202.028 208.061C202.73 207.839 205.931 200.796 205.755 198.028C205.58 195.26 202.272 189.391 202.272 189.391Z" fill="black"/>
<path d="M201.946 189.391C201.946 189.391 194.198 195.734 187.578 193.761C180.959 191.788 179.16 192.526 178.389 195.073C177.677 197.416 196.878 209.812 199.939 211.77C199.987 211.801 200.04 211.818 200.094 211.82C200.148 211.823 200.202 211.811 200.251 211.785C200.301 211.759 200.344 211.72 200.379 211.671C200.413 211.622 200.438 211.564 200.45 211.502C200.658 210.462 201.162 208.233 201.702 208.061C202.405 207.839 205.606 200.796 205.43 198.028C205.255 195.26 201.946 189.391 201.946 189.391Z" fill="#F3B5B7"/>
<path d="M265.924 174.162L244.13 170.721C244.13 170.721 208.673 190.603 204.445 190.985L205.42 199.779H211.926C214.529 199.779 239.901 193.279 243.479 186.779C245.549 186.132 247.75 186.405 249.66 187.544C252.913 189.456 284.141 201.309 284.141 201.309L265.924 174.162Z" fill="#575988"/>
<path opacity="0.1" d="M265.924 174.162L244.13 170.721C244.13 170.721 208.673 190.603 204.445 190.985L205.42 199.779H211.926C214.529 199.779 239.901 193.279 243.479 186.779C245.549 186.132 247.75 186.405 249.66 187.544C252.913 189.456 284.141 201.309 284.141 201.309L265.924 174.162Z" fill="black"/>
<path d="M227.215 186.015L223.636 191.368L227.215 193.662L232.419 189.074L227.215 186.015Z" fill="#F7C4A7"/>
<path d="M289.345 179.897C289.345 179.897 277.635 168.113 276.825 165.976C276.015 163.838 256.816 149.309 255.515 148.926C254.214 148.544 249.985 145.868 245.756 155.044C241.527 164.221 225.914 186.397 225.914 186.397C225.914 186.397 230.793 194.426 232.419 194.044C234.046 193.662 252.262 175.691 253.563 166.897C253.563 166.897 254.864 163.456 257.792 169.191C260.72 174.926 279.586 202.456 283.165 202.074C283.165 202.074 297.152 204.75 300.08 198.25C303.007 191.75 289.345 179.897 289.345 179.897Z" fill="#575988"/>
<path d="M296.013 123.882C296.013 123.882 291.947 125.985 291.622 134.779C291.297 143.574 284.14 158.485 284.14 158.485L284.791 176.074C284.791 176.074 292.598 185.25 293.248 190.985C293.899 196.721 299.429 200.544 299.429 200.544C299.429 200.544 305.935 196.721 306.911 191.75C307.887 186.779 308.537 174.544 310.164 169.956C311.79 165.368 310.814 136.691 310.814 136.691L305.935 126.75L303.332 123.309L296.501 132.485C296.501 132.485 292.761 126.559 296.013 123.882Z" fill="#DDDBE2"/>
<path opacity="0.1" d="M286.417 170.338C286.417 170.338 285.441 156.574 288.369 153.515L294.224 134.015C294.224 134.015 296.339 124.647 296.013 123.882C295.688 123.118 288.369 131.338 288.369 131.338L283.49 151.603L284.791 173.015L286.417 170.338Z" fill="black"/>
<path d="M286.092 170.338C286.092 170.338 285.116 156.574 288.044 153.515L293.899 134.015C293.899 134.015 296.176 124.456 295.851 123.691C295.526 122.926 288.044 131.338 288.044 131.338L283.165 151.603L284.466 173.015L286.092 170.338Z" fill="#575988"/>
<path d="M288.369 164.221C288.369 164.221 272.105 158.103 271.129 156.574C270.153 155.044 259.744 145.103 256.165 151.985C252.587 158.868 269.502 160.779 269.502 160.779L286.743 173.015L288.369 164.221Z" fill="#F7C4A7"/>
<path opacity="0.1" d="M227.921 191.333L223.106 190.316C223.106 190.316 215.221 202.188 211.113 200.984C207.005 199.779 203.225 204.976 207.564 206.643C211.484 208.149 228.412 210.256 231.635 210.646C231.701 210.654 231.767 210.646 231.829 210.622C231.892 210.599 231.949 210.56 231.999 210.509C232.048 210.458 232.087 210.396 232.115 210.326C232.143 210.256 232.158 210.18 232.159 210.103C232.184 208.625 232.437 207.165 232.907 205.794C233.776 203.289 232.907 197.91 232.667 195.853C232.534 194.647 232.213 193.48 231.72 192.411L227.921 191.333Z" fill="black"/>
<path d="M227.839 191.704L223.025 190.687C223.025 190.687 215.14 202.559 211.038 201.358C206.936 200.158 203.15 205.35 207.489 207.017C211.409 208.524 228.337 210.631 231.561 211.021C231.626 211.029 231.692 211.02 231.754 210.997C231.817 210.973 231.875 210.935 231.924 210.884C231.973 210.833 232.013 210.771 232.04 210.701C232.068 210.631 232.083 210.555 232.084 210.478C232.1 209.003 232.344 207.544 232.803 206.172C233.672 203.668 232.803 198.288 232.563 196.231C232.43 195.025 232.109 193.859 231.616 192.79L227.839 191.704Z" fill="#F3B5B7"/>
<path opacity="0.1" d="M295.688 123.118C301.437 123.118 306.098 117.64 306.098 110.882C306.098 104.125 301.437 98.6471 295.688 98.6471C289.939 98.6471 285.279 104.125 285.279 110.882C285.279 117.64 289.939 123.118 295.688 123.118Z" fill="black"/>
<path d="M294.712 123.118C300.461 123.118 305.122 117.64 305.122 110.882C305.122 104.125 300.461 98.6471 294.712 98.6471C288.963 98.6471 284.303 104.125 284.303 110.882C284.303 117.64 288.963 123.118 294.712 123.118Z" fill="#F7C4A7"/>
<path d="M304.959 122.926C304.959 122.926 317.32 127.897 317.32 138.221C317.32 148.544 310.489 164.985 310.164 178.368C309.838 191.75 291.948 189.838 291.948 189.838C291.948 189.838 289.345 144.721 291.948 141.279C294.55 137.838 306.26 124.456 304.959 122.926Z" fill="#575988"/>
<path opacity="0.1" d="M302.682 144.338C302.682 144.338 298.128 168.044 287.393 163.838C287.393 163.838 281.863 173.397 285.767 177.603C285.767 177.603 295.2 180.279 301.381 173.015C307.561 165.75 312.115 163.074 313.091 154.279C314.067 145.485 314.718 133.25 311.465 134.397C308.212 135.544 302.682 144.338 302.682 144.338Z" fill="black"/>
<path d="M303.007 143.956C303.007 143.956 298.453 167.662 287.719 163.456C287.719 163.456 282.189 173.015 286.092 177.221C286.092 177.221 295.526 179.897 301.706 172.632C307.887 165.368 312.441 162.691 313.416 153.897C314.392 145.103 315.043 132.868 311.79 134.015C308.537 135.162 303.007 143.956 303.007 143.956Z" fill="#575988"/>
<path d="M233.083 204.941C233.083 204.976 233.063 205.018 233.054 205.048C232.83 205.702 232.659 206.379 232.543 207.071C232.621 206.773 232.712 206.467 232.816 206.161C232.944 205.768 233.034 205.358 233.083 204.941Z" fill="#DDDBE2"/>
<path d="M207.727 205.901C206.386 205.385 205.824 204.536 205.801 203.641C205.248 204.888 205.596 206.287 207.489 207.014C211.409 208.52 228.34 210.627 231.561 211.017C231.626 211.025 231.692 211.017 231.755 210.993C231.818 210.969 231.876 210.93 231.925 210.879C231.974 210.827 232.014 210.765 232.041 210.694C232.069 210.624 232.083 210.547 232.084 210.47V210.47C232.087 210.33 232.044 210.193 231.965 210.088C231.887 209.982 231.777 209.916 231.658 209.9C228.126 209.457 211.594 207.384 207.727 205.901Z" fill="#DDDBE2"/>
<path d="M178.838 194.4C178.924 194.118 179.033 193.847 179.163 193.589C178.812 194.006 178.551 194.514 178.398 195.073C177.686 197.416 196.888 209.812 199.949 211.77C199.997 211.801 200.05 211.818 200.104 211.82C200.158 211.822 200.212 211.81 200.262 211.784C200.311 211.757 200.355 211.718 200.389 211.668C200.424 211.619 200.448 211.561 200.46 211.499V211.499C200.478 211.41 200.471 211.318 200.439 211.235C200.408 211.152 200.355 211.083 200.287 211.04C196.904 208.864 178.135 196.717 178.838 194.4Z" fill="#DDDBE2"/>
<path d="M202.148 207.392C201.976 207.446 201.806 207.717 201.647 208.088L201.699 208.065C201.842 208.019 202.086 207.683 202.382 207.186C202.319 207.275 202.239 207.346 202.148 207.392V207.392Z" fill="#DDDBE2"/>
<path opacity="0.1" d="M293.268 121.653C292.351 124.031 292.159 126.712 291.485 129.205C290.148 134.149 286.795 138.24 282.777 139.819C286.157 141.402 290.145 139.467 292.757 136.255C295.369 133.044 296.901 128.769 298.368 124.609C302.161 127.606 301.699 134.496 302.975 139.861C303.522 142.195 304.489 144.363 305.811 146.22C307.132 148.077 308.777 149.579 310.635 150.624C312.487 151.601 314.499 152.082 316.528 152.034C318.557 151.986 320.552 151.409 322.368 150.345C318.891 145.374 313.94 138.519 314.529 131.881C315.007 126.505 311.725 122.399 311.949 117.004C312.275 109.357 309.783 105.472 305.118 100.563C302.392 97.6912 306.683 93.6421 303.167 94.8274C301.784 95.2938 300.327 93.5541 298.97 94.1276C296.283 95.2747 293.349 94.8312 290.584 95.5959C276.213 99.5647 294.608 118.181 293.268 121.653Z" fill="black"/>
<path d="M293.593 121.271C292.676 123.649 292.484 126.329 291.811 128.822C290.474 133.766 287.12 137.857 283.103 139.436C286.483 141.019 290.471 139.085 293.083 135.873C295.695 132.661 297.227 128.386 298.694 124.226C302.487 127.224 302.025 134.114 303.3 139.479C303.847 141.812 304.814 143.981 306.136 145.838C307.458 147.695 309.103 149.197 310.961 150.242C312.812 151.218 314.825 151.7 316.854 151.652C318.883 151.603 320.877 151.026 322.694 149.963C319.216 144.992 314.591 139.284 315.18 132.646C315.658 127.27 314.945 121.745 315.18 116.354C315.505 108.707 312.314 101.32 307.646 96.4103C304.92 93.5388 300.662 93.1718 299.302 93.7338C296.615 94.8809 293.681 94.4374 290.916 95.2021C276.538 99.1824 294.934 117.799 293.593 121.271Z" fill="#FC6681"/>
</g>
<defs>
<linearGradient id="paint0_linear" x1="192.913" y1="176.655" x2="192.913" y2="36.8091" gradientUnits="userSpaceOnUse">
<stop stop-color="#808080" stop-opacity="0.25"/>
<stop offset="0.54" stop-color="#808080" stop-opacity="0.12"/>
<stop offset="1" stop-color="#808080" stop-opacity="0.1"/>
</linearGradient>
<linearGradient id="paint1_linear" x1="38935.2" y1="81226.8" x2="38935.2" y2="38578.1" gradientUnits="userSpaceOnUse">
<stop stop-color="#808080" stop-opacity="0.25"/>
<stop offset="0.54" stop-color="#808080" stop-opacity="0.12"/>
<stop offset="1" stop-color="#808080" stop-opacity="0.1"/>
</linearGradient>
<linearGradient id="paint2_linear" x1="15556.3" y1="66227.1" x2="15556.3" y2="40180.8" gradientUnits="userSpaceOnUse">
<stop stop-color="#808080" stop-opacity="0.25"/>
<stop offset="0.54" stop-color="#808080" stop-opacity="0.12"/>
<stop offset="1" stop-color="#808080" stop-opacity="0.1"/>
</linearGradient>
<linearGradient id="paint3_linear" x1="125841" y1="85667.6" x2="125841" y2="46974.7" gradientUnits="userSpaceOnUse">
<stop stop-color="#808080" stop-opacity="0.25"/>
<stop offset="0.54" stop-color="#808080" stop-opacity="0.12"/>
<stop offset="1" stop-color="#808080" stop-opacity="0.1"/>
</linearGradient>
<clipPath id="clip0">
<rect width="337" height="234" fill="white"/>
</clipPath>
</defs>
</svg>
